<?xml version="1.0" encoding="UTF-8" standalone="no"?>
<svg
   xmlns:dc="http://purl.org/dc/elements/1.1/"
   xmlns:cc="http://creativecommons.org/ns#"
   xmlns:rdf="http://www.w3.org/1999/02/22-rdf-syntax-ns#"
   xmlns:svg="http://www.w3.org/2000/svg"
   xmlns="http://www.w3.org/2000/svg"
   xmlns:sodipodi="http://sodipodi.sourceforge.net/DTD/sodipodi-0.dtd"
   xmlns:inkscape="http://www.inkscape.org/namespaces/inkscape"
   inkscape:version="1.0alpha2 (4ce689b25c, 2019-06-24)"
   sodipodi:docname="2at.svg"
   id="svg2195"
   version="1.1"
   fill="none"
   viewBox="0 0 30 380"
   height="380"
   width="30">
  <metadata
     id="metadata2201">
    <rdf:RDF>
      <cc:Work
         rdf:about="">
        <dc:format>image/svg+xml</dc:format>
        <dc:type
           rdf:resource="http://purl.org/dc/dcmitype/StillImage" />
        <dc:title></dc:title>
      </cc:Work>
    </rdf:RDF>
  </metadata>
  <defs
     id="defs2199" />
  <sodipodi:namedview
     inkscape:current-layer="svg2195"
     inkscape:window-maximized="0"
     inkscape:window-y="0"
     inkscape:window-x="121"
     inkscape:cy="193.85622"
     inkscape:cx="-54.397118"
     inkscape:zoom="2.1585365"
     showgrid="true"
     id="namedview2197"
     inkscape:window-height="1010"
     inkscape:window-width="1002"
     inkscape:pageshadow="2"
     inkscape:pageopacity="0"
     guidetolerance="10"
     gridtolerance="15"
     objecttolerance="10"
     borderopacity="1"
     inkscape:document-rotation="0"
     bordercolor="#666666"
     pagecolor="#525252">
    <inkscape:grid
       opacity="0.1254902"
       color="#5252f4"
       empopacity="0.25098039"
       empcolor="#6666ff"
       id="grid2764"
       type="xygrid" />
  </sodipodi:namedview>
  <rect
     id="rect2171"
     fill="#211E29"
     height="380"
     width="30" />
  <path
     id="path2173"
     fill="#FEC38F"
     d="M7.18683 14C7.10683 14 7.04283 13.976 6.99483 13.928C6.94683 13.88 6.92283 13.816 6.92283 13.736V13.556C6.92283 13.396 7.02283 13.228 7.22283 13.052L10.3308 9.944C10.7708 9.536 11.0668 9.192 11.2188 8.912C11.3708 8.632 11.4468 8.3 11.4468 7.916C11.4468 7.38 11.2908 6.96 10.9788 6.656C10.6748 6.352 10.2388 6.2 9.67083 6.2C9.13483 6.2 8.70683 6.356 8.38683 6.668C8.06683 6.98 7.87483 7.4 7.81083 7.928C7.80283 8.016 7.76683 8.084 7.70283 8.132C7.64683 8.18 7.59083 8.204 7.53483 8.204H7.29483C7.21483 8.204 7.15083 8.184 7.10283 8.144C7.06283 8.096 7.04283 8.04 7.04283 7.976C7.05883 7.584 7.16283 7.196 7.35483 6.812C7.54683 6.428 7.83883 6.112 8.23083 5.864C8.62283 5.608 9.10283 5.48 9.67083 5.48C10.5268 5.48 11.1628 5.712 11.5788 6.176C11.9948 6.64 12.2028 7.22 12.2028 7.916C12.2028 8.396 12.0988 8.828 11.8908 9.212C11.6828 9.596 11.3508 10 10.8948 10.424L8.08683 13.28H12.1068C12.1948 13.28 12.2628 13.304 12.3108 13.352C12.3588 13.4 12.3828 13.468 12.3828 13.556V13.736C12.3828 13.816 12.3548 13.88 12.2988 13.928C12.2508 13.976 12.1868 14 12.1068 14H7.18683ZM15.6657 14.12C15.2817 14.12 14.9257 14.04 14.5977 13.88C14.2697 13.72 14.0057 13.504 13.8057 13.232C13.6137 12.96 13.5177 12.66 13.5177 12.332C13.5177 11.804 13.7297 11.372 14.1537 11.036C14.5857 10.7 15.1657 10.484 15.8937 10.388L17.7897 10.124V9.704C17.7897 9.264 17.6537 8.928 17.3817 8.696C17.1177 8.456 16.7097 8.336 16.1577 8.336C15.7497 8.336 15.4137 8.416 15.1497 8.576C14.8937 8.736 14.7297 8.928 14.6577 9.152C14.6257 9.248 14.5857 9.316 14.5377 9.356C14.4977 9.388 14.4417 9.404 14.3697 9.404H14.2017C14.1297 9.404 14.0657 9.38 14.0097 9.332C13.9617 9.276 13.9377 9.212 13.9377 9.14C13.9377 8.964 14.0177 8.76 14.1777 8.528C14.3377 8.288 14.5857 8.08 14.9217 7.904C15.2577 7.728 15.6697 7.64 16.1577 7.64C17.0137 7.64 17.6217 7.844 17.9817 8.252C18.3417 8.66 18.5217 9.156 18.5217 9.74V13.736C18.5217 13.816 18.4977 13.88 18.4497 13.928C18.4017 13.976 18.3377 14 18.2577 14H18.0537C17.9737 14 17.9097 13.976 17.8617 13.928C17.8137 13.88 17.7897 13.816 17.7897 13.736V13.172C17.6137 13.436 17.3537 13.66 17.0097 13.844C16.6737 14.028 16.2257 14.12 15.6657 14.12ZM15.7857 13.424C16.3697 13.424 16.8497 13.232 17.2257 12.848C17.6017 12.464 17.7897 11.912 17.7897 11.192V10.784L16.2417 11C15.5857 11.088 15.0897 11.24 14.7537 11.456C14.4177 11.672 14.2497 11.944 14.2497 12.272C14.2497 12.64 14.4017 12.924 14.7057 13.124C15.0177 13.324 15.3777 13.424 15.7857 13.424ZM22.4607 14C21.8687 14 21.4487 13.824 21.2007 13.472C20.9527 13.112 20.8287 12.62 20.8287 11.996V8.456H19.8927C19.8127 8.456 19.7487 8.432 19.7007 8.384C19.6527 8.336 19.6287 8.272 19.6287 8.192V8.024C19.6287 7.944 19.6527 7.88 19.7007 7.832C19.7487 7.784 19.8127 7.76 19.8927 7.76H20.8287V5.744C20.8287 5.664 20.8527 5.6 20.9007 5.552C20.9487 5.504 21.0127 5.48 21.0927 5.48H21.2967C21.3767 5.48 21.4407 5.504 21.4887 5.552C21.5367 5.6 21.5607 5.664 21.5607 5.744V7.76H23.0487C23.1287 7.76 23.1927 7.784 23.2407 7.832C23.2887 7.88 23.3127 7.944 23.3127 8.024V8.192C23.3127 8.272 23.2887 8.336 23.2407 8.384C23.1927 8.432 23.1287 8.456 23.0487 8.456H21.5607V11.948C21.5607 12.396 21.6327 12.736 21.7767 12.968C21.9287 13.192 22.1767 13.304 22.5207 13.304H23.1687C23.2487 13.304 23.3127 13.328 23.3607 13.376C23.4087 13.424 23.4327 13.488 23.4327 13.568V13.736C23.4327 13.816 23.4087 13.88 23.3607 13.928C23.3127 13.976 23.2487 14 23.1687 14H22.4607Z" />
  <path
     id="path2175"
     fill="#FEC38F"
     d="M5.87428 99.09C5.25028 99.09 4.76428 98.901 4.41628 98.523C4.07428 98.139 3.89428 97.644 3.87628 97.038L3.86728 96.66L3.87628 96.282C3.89428 95.676 4.07428 95.184 4.41628 94.806C4.76428 94.422 5.25028 94.23 5.87428 94.23C6.49828 94.23 6.98128 94.422 7.32328 94.806C7.67128 95.184 7.85428 95.676 7.87228 96.282C7.87828 96.342 7.88128 96.468 7.88128 96.66C7.88128 96.852 7.87828 96.978 7.87228 97.038C7.85428 97.644 7.67128 98.139 7.32328 98.523C6.98128 98.901 6.49828 99.09 5.87428 99.09ZM5.87428 98.568C6.30028 98.568 6.64228 98.433 6.90028 98.163C7.16428 97.887 7.30528 97.497 7.32328 96.993C7.32928 96.933 7.33228 96.822 7.33228 96.66C7.33228 96.498 7.32928 96.387 7.32328 96.327C7.30528 95.823 7.16428 95.436 6.90028 95.166C6.64228 94.89 6.30028 94.752 5.87428 94.752C5.44828 94.752 5.10328 94.89 4.83928 95.166C4.58128 95.436 4.44328 95.823 4.42528 96.327L4.41628 96.66L4.42528 96.993C4.44328 97.497 4.58128 97.887 4.83928 98.163C5.10328 98.433 5.44828 98.568 5.87428 98.568ZM9.68831 99C9.62831 99 9.58031 98.982 9.54431 98.946C9.50831 98.91 9.49031 98.862 9.49031 98.802V94.842H8.68931C8.62931 94.842 8.58131 94.824 8.54531 94.788C8.50931 94.752 8.49131 94.704 8.49131 94.644V94.518C8.49131 94.458 8.50931 94.41 8.54531 94.374C8.58131 94.338 8.62931 94.32 8.68931 94.32H9.49031V93.807C9.49031 93.351 9.58931 92.994 9.78731 92.736C9.98531 92.472 10.3393 92.34 10.8493 92.34H11.3173C11.3773 92.34 11.4253 92.358 11.4613 92.394C11.4973 92.43 11.5153 92.478 11.5153 92.538V92.664C11.5153 92.724 11.4973 92.772 11.4613 92.808C11.4253 92.844 11.3773 92.862 11.3173 92.862H10.8493C10.5433 92.862 10.3303 92.943 10.2103 93.105C10.0963 93.261 10.0393 93.51 10.0393 93.852V94.32H12.0283V93.807C12.0283 93.351 12.1273 92.994 12.3253 92.736C12.5233 92.472 12.8773 92.34 13.3873 92.34H13.8553C13.9153 92.34 13.9633 92.358 13.9993 92.394C14.0353 92.43 14.0533 92.478 14.0533 92.538V92.664C14.0533 92.724 14.0353 92.772 13.9993 92.808C13.9633 92.844 13.9153 92.862 13.8553 92.862H13.3873C13.0813 92.862 12.8683 92.943 12.7483 93.105C12.6343 93.261 12.5773 93.51 12.5773 93.852V94.32H13.7653C13.8253 94.32 13.8733 94.338 13.9093 94.374C13.9453 94.41 13.9633 94.458 13.9633 94.518V94.644C13.9633 94.704 13.9453 94.752 13.9093 94.788C13.8733 94.824 13.8253 94.842 13.7653 94.842H12.5773V98.802C12.5773 98.862 12.5593 98.91 12.5233 98.946C12.4873 98.982 12.4393 99 12.3793 99H12.2263C12.1663 99 12.1183 98.982 12.0823 98.946C12.0463 98.91 12.0283 98.862 12.0283 98.802V94.842H10.0393V98.802C10.0393 98.862 10.0213 98.91 9.98531 98.946C9.94931 98.982 9.90131 99 9.84131 99H9.68831ZM16.3087 99.09C15.9187 99.09 15.5887 99.024 15.3187 98.892C15.0547 98.76 14.8537 98.61 14.7157 98.442C14.5837 98.274 14.5177 98.139 14.5177 98.037C14.5177 97.983 14.5387 97.941 14.5807 97.911C14.6227 97.875 14.6677 97.857 14.7157 97.857H14.8507C14.8927 97.857 14.9257 97.866 14.9497 97.884C14.9797 97.896 15.0127 97.926 15.0487 97.974C15.1807 98.16 15.3397 98.307 15.5257 98.415C15.7177 98.517 15.9787 98.568 16.3087 98.568C16.6807 98.568 16.9807 98.499 17.2087 98.361C17.4367 98.217 17.5507 98.013 17.5507 97.749C17.5507 97.587 17.5027 97.455 17.4067 97.353C17.3167 97.251 17.1667 97.164 16.9567 97.092C16.7527 97.014 16.4467 96.927 16.0387 96.831C15.5047 96.711 15.1387 96.546 14.9407 96.336C14.7487 96.126 14.6527 95.859 14.6527 95.535C14.6527 95.313 14.7127 95.103 14.8327 94.905C14.9587 94.707 15.1417 94.545 15.3817 94.419C15.6277 94.293 15.9217 94.23 16.2637 94.23C16.6237 94.23 16.9267 94.293 17.1727 94.419C17.4247 94.539 17.6107 94.68 17.7307 94.842C17.8567 95.004 17.9197 95.136 17.9197 95.238C17.9197 95.292 17.8987 95.337 17.8567 95.373C17.8207 95.403 17.7757 95.418 17.7217 95.418H17.5867C17.5027 95.418 17.4367 95.379 17.3887 95.301C17.2687 95.121 17.1307 94.986 16.9747 94.896C16.8247 94.8 16.5877 94.752 16.2637 94.752C15.9157 94.752 15.6517 94.824 15.4717 94.968C15.2917 95.112 15.2017 95.301 15.2017 95.535C15.2017 95.679 15.2377 95.799 15.3097 95.895C15.3817 95.991 15.5167 96.081 15.7147 96.165C15.9127 96.243 16.2007 96.324 16.5787 96.408C17.1367 96.534 17.5297 96.702 17.7577 96.912C17.9857 97.122 18.0997 97.401 18.0997 97.749C18.0997 97.995 18.0307 98.22 17.8927 98.424C17.7547 98.628 17.5507 98.79 17.2807 98.91C17.0107 99.03 16.6867 99.09 16.3087 99.09ZM20.9904 99.09C20.4204 99.09 19.9614 98.904 19.6134 98.532C19.2654 98.154 19.0674 97.65 19.0194 97.02L19.0104 96.66L19.0194 96.3C19.0674 95.676 19.2624 95.175 19.6044 94.797C19.9524 94.419 20.4144 94.23 20.9904 94.23C21.6144 94.23 22.1004 94.437 22.4484 94.851C22.8024 95.265 22.9794 95.832 22.9794 96.552V96.687C22.9794 96.747 22.9584 96.795 22.9164 96.831C22.8804 96.867 22.8324 96.885 22.7724 96.885H19.5684V96.975C19.5804 97.257 19.6434 97.521 19.7574 97.767C19.8774 98.007 20.0424 98.202 20.2524 98.352C20.4624 98.496 20.7084 98.568 20.9904 98.568C21.3204 98.568 21.5874 98.505 21.7914 98.379C22.0014 98.247 22.1514 98.115 22.2414 97.983C22.2954 97.911 22.3344 97.866 22.3584 97.848C22.3884 97.83 22.4394 97.821 22.5114 97.821H22.6554C22.7094 97.821 22.7544 97.836 22.7904 97.866C22.8264 97.896 22.8444 97.935 22.8444 97.983C22.8444 98.109 22.7634 98.262 22.6014 98.442C22.4454 98.616 22.2264 98.769 21.9444 98.901C21.6624 99.027 21.3444 99.09 20.9904 99.09ZM22.4304 96.381V96.345C22.4304 95.883 22.2984 95.502 22.0344 95.202C21.7764 94.902 21.4284 94.752 20.9904 94.752C20.5524 94.752 20.2044 94.902 19.9464 95.202C19.6944 95.502 19.5684 95.883 19.5684 96.345V96.381H22.4304ZM25.7063 99C25.2623 99 24.9473 98.868 24.7613 98.604C24.5753 98.334 24.4823 97.965 24.4823 97.497V94.842H23.7803C23.7203 94.842 23.6723 94.824 23.6363 94.788C23.6003 94.752 23.5823 94.704 23.5823 94.644V94.518C23.5823 94.458 23.6003 94.41 23.6363 94.374C23.6723 94.338 23.7203 94.32 23.7803 94.32H24.4823V92.808C24.4823 92.748 24.5003 92.7 24.5363 92.664C24.5723 92.628 24.6203 92.61 24.6803 92.61H24.8333C24.8933 92.61 24.9413 92.628 24.9773 92.664C25.0133 92.7 25.0313 92.748 25.0313 92.808V94.32H26.1473C26.2073 94.32 26.2553 94.338 26.2913 94.374C26.3273 94.41 26.3453 94.458 26.3453 94.518V94.644C26.3453 94.704 26.3273 94.752 26.2913 94.788C26.2553 94.824 26.2073 94.842 26.1473 94.842H25.0313V97.461C25.0313 97.797 25.0853 98.052 25.1933 98.226C25.3073 98.394 25.4933 98.478 25.7513 98.478H26.2373C26.2973 98.478 26.3453 98.496 26.3813 98.532C26.4173 98.568 26.4353 98.616 26.4353 98.676V98.802C26.4353 98.862 26.4173 98.91 26.3813 98.946C26.3453 98.982 26.2973 99 26.2373 99H25.7063Z" />
  <path
     id="path2177"
     fill="#FEC38F"
     d="M6.70668 229.09C6.31668 229.09 5.98668 229.024 5.71668 228.892C5.45268 228.76 5.25168 228.61 5.11368 228.442C4.98168 228.274 4.91568 228.139 4.91568 228.037C4.91568 227.983 4.93668 227.941 4.97868 227.911C5.02068 227.875 5.06568 227.857 5.11368 227.857H5.24868C5.29068 227.857 5.32368 227.866 5.34768 227.884C5.37768 227.896 5.41068 227.926 5.44668 227.974C5.57868 228.16 5.73768 228.307 5.92368 228.415C6.11568 228.517 6.37668 228.568 6.70668 228.568C7.07868 228.568 7.37868 228.499 7.60668 228.361C7.83468 228.217 7.94868 228.013 7.94868 227.749C7.94868 227.587 7.90068 227.455 7.80468 227.353C7.71468 227.251 7.56468 227.164 7.35468 227.092C7.15068 227.014 6.84468 226.927 6.43668 226.831C5.90268 226.711 5.53668 226.546 5.33868 226.336C5.14668 226.126 5.05068 225.859 5.05068 225.535C5.05068 225.313 5.11068 225.103 5.23068 224.905C5.35668 224.707 5.53968 224.545 5.77968 224.419C6.02568 224.293 6.31968 224.23 6.66168 224.23C7.02168 224.23 7.32468 224.293 7.57068 224.419C7.82268 224.539 8.00868 224.68 8.12868 224.842C8.25468 225.004 8.31768 225.136 8.31768 225.238C8.31768 225.292 8.29668 225.337 8.25468 225.373C8.21868 225.403 8.17368 225.418 8.11968 225.418H7.98468C7.90068 225.418 7.83468 225.379 7.78668 225.301C7.66668 225.121 7.52868 224.986 7.37268 224.896C7.22268 224.8 6.98568 224.752 6.66168 224.752C6.31368 224.752 6.04968 224.824 5.86968 224.968C5.68968 225.112 5.59968 225.301 5.59968 225.535C5.59968 225.679 5.63568 225.799 5.70768 225.895C5.77968 225.991 5.91468 226.081 6.11268 226.165C6.31068 226.243 6.59868 226.324 6.97668 226.408C7.53468 226.534 7.92768 226.702 8.15568 226.912C8.38368 227.122 8.49768 227.401 8.49768 227.749C8.49768 227.995 8.42868 228.22 8.29068 228.424C8.15268 228.628 7.94868 228.79 7.67868 228.91C7.40868 229.03 7.08468 229.09 6.70668 229.09ZM11.4244 229.09C10.8004 229.09 10.3174 228.91 9.97536 228.55C9.63336 228.184 9.45336 227.674 9.43536 227.02L9.42636 226.66L9.43536 226.3C9.45336 225.646 9.63336 225.139 9.97536 224.779C10.3174 224.413 10.8004 224.23 11.4244 224.23C11.8204 224.23 12.1564 224.302 12.4324 224.446C12.7144 224.584 12.9244 224.764 13.0624 224.986C13.2004 225.202 13.2754 225.427 13.2874 225.661C13.2934 225.715 13.2754 225.763 13.2334 225.805C13.1914 225.841 13.1434 225.859 13.0894 225.859H12.9634C12.9034 225.859 12.8584 225.847 12.8284 225.823C12.8044 225.793 12.7774 225.742 12.7474 225.67C12.6274 225.34 12.4594 225.106 12.2434 224.968C12.0274 224.824 11.7544 224.752 11.4244 224.752C10.9924 224.752 10.6474 224.884 10.3894 225.148C10.1374 225.406 10.0024 225.805 9.98436 226.345L9.97536 226.66L9.98436 226.975C10.0024 227.515 10.1374 227.917 10.3894 228.181C10.6474 228.439 10.9924 228.568 11.4244 228.568C11.7544 228.568 12.0274 228.499 12.2434 228.361C12.4594 228.217 12.6274 227.98 12.7474 227.65C12.7774 227.578 12.8044 227.53 12.8284 227.506C12.8584 227.476 12.9034 227.461 12.9634 227.461H13.0894C13.1434 227.461 13.1914 227.482 13.2334 227.524C13.2754 227.56 13.2934 227.605 13.2874 227.659C13.2754 227.893 13.2004 228.121 13.0624 228.343C12.9244 228.559 12.7144 228.739 12.4324 228.883C12.1564 229.021 11.8204 229.09 11.4244 229.09ZM15.7366 229.09C15.4486 229.09 15.1816 229.03 14.9356 228.91C14.6896 228.79 14.4916 228.628 14.3416 228.424C14.1976 228.22 14.1256 227.995 14.1256 227.749C14.1256 227.353 14.2846 227.029 14.6026 226.777C14.9266 226.525 15.3616 226.363 15.9076 226.291L17.3296 226.093V225.778C17.3296 225.448 17.2276 225.196 17.0236 225.022C16.8256 224.842 16.5196 224.752 16.1056 224.752C15.7996 224.752 15.5476 224.812 15.3496 224.932C15.1576 225.052 15.0346 225.196 14.9806 225.364C14.9566 225.436 14.9266 225.487 14.8906 225.517C14.8606 225.541 14.8186 225.553 14.7646 225.553H14.6386C14.5846 225.553 14.5366 225.535 14.4946 225.499C14.4586 225.457 14.4406 225.409 14.4406 225.355C14.4406 225.223 14.5006 225.07 14.6206 224.896C14.7406 224.716 14.9266 224.56 15.1786 224.428C15.4306 224.296 15.7396 224.23 16.1056 224.23C16.7476 224.23 17.2036 224.383 17.4736 224.689C17.7436 224.995 17.8786 225.367 17.8786 225.805V228.802C17.8786 228.862 17.8606 228.91 17.8246 228.946C17.7886 228.982 17.7406 229 17.6806 229H17.5276C17.4676 229 17.4196 228.982 17.3836 228.946C17.3476 228.91 17.3296 228.862 17.3296 228.802V228.379C17.1976 228.577 17.0026 228.745 16.7446 228.883C16.4926 229.021 16.1566 229.09 15.7366 229.09ZM15.8266 228.568C16.2646 228.568 16.6246 228.424 16.9066 228.136C17.1886 227.848 17.3296 227.434 17.3296 226.894V226.588L16.1686 226.75C15.6766 226.816 15.3046 226.93 15.0526 227.092C14.8006 227.254 14.6746 227.458 14.6746 227.704C14.6746 227.98 14.7886 228.193 15.0166 228.343C15.2506 228.493 15.5206 228.568 15.8266 228.568ZM19.5088 229C19.4488 229 19.4008 228.982 19.3648 228.946C19.3288 228.91 19.3108 228.862 19.3108 228.802V222.808C19.3108 222.748 19.3288 222.7 19.3648 222.664C19.4008 222.628 19.4488 222.61 19.5088 222.61H19.6618C19.7218 222.61 19.7698 222.628 19.8058 222.664C19.8418 222.7 19.8598 222.748 19.8598 222.808V228.802C19.8598 228.862 19.8418 228.91 19.8058 228.946C19.7698 228.982 19.7218 229 19.6618 229H19.5088ZM23.0602 229.09C22.4902 229.09 22.0312 228.904 21.6832 228.532C21.3352 228.154 21.1372 227.65 21.0892 227.02L21.0802 226.66L21.0892 226.3C21.1372 225.676 21.3322 225.175 21.6742 224.797C22.0222 224.419 22.4842 224.23 23.0602 224.23C23.6842 224.23 24.1702 224.437 24.5182 224.851C24.8722 225.265 25.0492 225.832 25.0492 226.552V226.687C25.0492 226.747 25.0282 226.795 24.9862 226.831C24.9502 226.867 24.9022 226.885 24.8422 226.885H21.6382V226.975C21.6502 227.257 21.7132 227.521 21.8272 227.767C21.9472 228.007 22.1122 228.202 22.3222 228.352C22.5322 228.496 22.7782 228.568 23.0602 228.568C23.3902 228.568 23.6572 228.505 23.8612 228.379C24.0712 228.247 24.2212 228.115 24.3112 227.983C24.3652 227.911 24.4042 227.866 24.4282 227.848C24.4582 227.83 24.5092 227.821 24.5812 227.821H24.7252C24.7792 227.821 24.8242 227.836 24.8602 227.866C24.8962 227.896 24.9142 227.935 24.9142 227.983C24.9142 228.109 24.8332 228.262 24.6712 228.442C24.5152 228.616 24.2962 228.769 24.0142 228.901C23.7322 229.027 23.4142 229.09 23.0602 229.09ZM24.5002 226.381V226.345C24.5002 225.883 24.3682 225.502 24.1042 225.202C23.8462 224.902 23.4982 224.752 23.0602 224.752C22.6222 224.752 22.2742 224.902 22.0162 225.202C21.7642 225.502 21.6382 225.883 21.6382 226.345V226.381H24.5002Z" />
  <path
     id="path2179"
     fill="#FEC38F"
     d="M6.70668 59.09C6.31668 59.09 5.98668 59.024 5.71668 58.892C5.45268 58.76 5.25168 58.61 5.11368 58.442C4.98168 58.274 4.91568 58.139 4.91568 58.037C4.91568 57.983 4.93668 57.941 4.97868 57.911C5.02068 57.875 5.06568 57.857 5.11368 57.857H5.24868C5.29068 57.857 5.32368 57.866 5.34768 57.884C5.37768 57.896 5.41068 57.926 5.44668 57.974C5.57868 58.16 5.73768 58.307 5.92368 58.415C6.11568 58.517 6.37668 58.568 6.70668 58.568C7.07868 58.568 7.37868 58.499 7.60668 58.361C7.83468 58.217 7.94868 58.013 7.94868 57.749C7.94868 57.587 7.90068 57.455 7.80468 57.353C7.71468 57.251 7.56468 57.164 7.35468 57.092C7.15068 57.014 6.84468 56.927 6.43668 56.831C5.90268 56.711 5.53668 56.546 5.33868 56.336C5.14668 56.126 5.05068 55.859 5.05068 55.535C5.05068 55.313 5.11068 55.103 5.23068 54.905C5.35668 54.707 5.53968 54.545 5.77968 54.419C6.02568 54.293 6.31968 54.23 6.66168 54.23C7.02168 54.23 7.32468 54.293 7.57068 54.419C7.82268 54.539 8.00868 54.68 8.12868 54.842C8.25468 55.004 8.31768 55.136 8.31768 55.238C8.31768 55.292 8.29668 55.337 8.25468 55.373C8.21868 55.403 8.17368 55.418 8.11968 55.418H7.98468C7.90068 55.418 7.83468 55.379 7.78668 55.301C7.66668 55.121 7.52868 54.986 7.37268 54.896C7.22268 54.8 6.98568 54.752 6.66168 54.752C6.31368 54.752 6.04968 54.824 5.86968 54.968C5.68968 55.112 5.59968 55.301 5.59968 55.535C5.59968 55.679 5.63568 55.799 5.70768 55.895C5.77968 55.991 5.91468 56.081 6.11268 56.165C6.31068 56.243 6.59868 56.324 6.97668 56.408C7.53468 56.534 7.92768 56.702 8.15568 56.912C8.38368 57.122 8.49768 57.401 8.49768 57.749C8.49768 57.995 8.42868 58.22 8.29068 58.424C8.15268 58.628 7.94868 58.79 7.67868 58.91C7.40868 59.03 7.08468 59.09 6.70668 59.09ZM11.4244 59.09C10.8004 59.09 10.3174 58.91 9.97536 58.55C9.63336 58.184 9.45336 57.674 9.43536 57.02L9.42636 56.66L9.43536 56.3C9.45336 55.646 9.63336 55.139 9.97536 54.779C10.3174 54.413 10.8004 54.23 11.4244 54.23C11.8204 54.23 12.1564 54.302 12.4324 54.446C12.7144 54.584 12.9244 54.764 13.0624 54.986C13.2004 55.202 13.2754 55.427 13.2874 55.661C13.2934 55.715 13.2754 55.763 13.2334 55.805C13.1914 55.841 13.1434 55.859 13.0894 55.859H12.9634C12.9034 55.859 12.8584 55.847 12.8284 55.823C12.8044 55.793 12.7774 55.742 12.7474 55.67C12.6274 55.34 12.4594 55.106 12.2434 54.968C12.0274 54.824 11.7544 54.752 11.4244 54.752C10.9924 54.752 10.6474 54.884 10.3894 55.148C10.1374 55.406 10.0024 55.805 9.98436 56.345L9.97536 56.66L9.98436 56.975C10.0024 57.515 10.1374 57.917 10.3894 58.181C10.6474 58.439 10.9924 58.568 11.4244 58.568C11.7544 58.568 12.0274 58.499 12.2434 58.361C12.4594 58.217 12.6274 57.98 12.7474 57.65C12.7774 57.578 12.8044 57.53 12.8284 57.506C12.8584 57.476 12.9034 57.461 12.9634 57.461H13.0894C13.1434 57.461 13.1914 57.482 13.2334 57.524C13.2754 57.56 13.2934 57.605 13.2874 57.659C13.2754 57.893 13.2004 58.121 13.0624 58.343C12.9244 58.559 12.7144 58.739 12.4324 58.883C12.1564 59.021 11.8204 59.09 11.4244 59.09ZM15.7366 59.09C15.4486 59.09 15.1816 59.03 14.9356 58.91C14.6896 58.79 14.4916 58.628 14.3416 58.424C14.1976 58.22 14.1256 57.995 14.1256 57.749C14.1256 57.353 14.2846 57.029 14.6026 56.777C14.9266 56.525 15.3616 56.363 15.9076 56.291L17.3296 56.093V55.778C17.3296 55.448 17.2276 55.196 17.0236 55.022C16.8256 54.842 16.5196 54.752 16.1056 54.752C15.7996 54.752 15.5476 54.812 15.3496 54.932C15.1576 55.052 15.0346 55.196 14.9806 55.364C14.9566 55.436 14.9266 55.487 14.8906 55.517C14.8606 55.541 14.8186 55.553 14.7646 55.553H14.6386C14.5846 55.553 14.5366 55.535 14.4946 55.499C14.4586 55.457 14.4406 55.409 14.4406 55.355C14.4406 55.223 14.5006 55.07 14.6206 54.896C14.7406 54.716 14.9266 54.56 15.1786 54.428C15.4306 54.296 15.7396 54.23 16.1056 54.23C16.7476 54.23 17.2036 54.383 17.4736 54.689C17.7436 54.995 17.8786 55.367 17.8786 55.805V58.802C17.8786 58.862 17.8606 58.91 17.8246 58.946C17.7886 58.982 17.7406 59 17.6806 59H17.5276C17.4676 59 17.4196 58.982 17.3836 58.946C17.3476 58.91 17.3296 58.862 17.3296 58.802V58.379C17.1976 58.577 17.0026 58.745 16.7446 58.883C16.4926 59.021 16.1566 59.09 15.7366 59.09ZM15.8266 58.568C16.2646 58.568 16.6246 58.424 16.9066 58.136C17.1886 57.848 17.3296 57.434 17.3296 56.894V56.588L16.1686 56.75C15.6766 56.816 15.3046 56.93 15.0526 57.092C14.8006 57.254 14.6746 57.458 14.6746 57.704C14.6746 57.98 14.7886 58.193 15.0166 58.343C15.2506 58.493 15.5206 58.568 15.8266 58.568ZM19.5088 59C19.4488 59 19.4008 58.982 19.3648 58.946C19.3288 58.91 19.3108 58.862 19.3108 58.802V52.808C19.3108 52.748 19.3288 52.7 19.3648 52.664C19.4008 52.628 19.4488 52.61 19.5088 52.61H19.6618C19.7218 52.61 19.7698 52.628 19.8058 52.664C19.8418 52.7 19.8598 52.748 19.8598 52.808V58.802C19.8598 58.862 19.8418 58.91 19.8058 58.946C19.7698 58.982 19.7218 59 19.6618 59H19.5088ZM23.0602 59.09C22.4902 59.09 22.0312 58.904 21.6832 58.532C21.3352 58.154 21.1372 57.65 21.0892 57.02L21.0802 56.66L21.0892 56.3C21.1372 55.676 21.3322 55.175 21.6742 54.797C22.0222 54.419 22.4842 54.23 23.0602 54.23C23.6842 54.23 24.1702 54.437 24.5182 54.851C24.8722 55.265 25.0492 55.832 25.0492 56.552V56.687C25.0492 56.747 25.0282 56.795 24.9862 56.831C24.9502 56.867 24.9022 56.885 24.8422 56.885H21.6382V56.975C21.6502 57.257 21.7132 57.521 21.8272 57.767C21.9472 58.007 22.1122 58.202 22.3222 58.352C22.5322 58.496 22.7782 58.568 23.0602 58.568C23.3902 58.568 23.6572 58.505 23.8612 58.379C24.0712 58.247 24.2212 58.115 24.3112 57.983C24.3652 57.911 24.4042 57.866 24.4282 57.848C24.4582 57.83 24.5092 57.821 24.5812 57.821H24.7252C24.7792 57.821 24.8242 57.836 24.8602 57.866C24.8962 57.896 24.9142 57.935 24.9142 57.983C24.9142 58.109 24.8332 58.262 24.6712 58.442C24.5152 58.616 24.2962 58.769 24.0142 58.901C23.7322 59.027 23.4142 59.09 23.0602 59.09ZM24.5002 56.381V56.345C24.5002 55.883 24.3682 55.502 24.1042 55.202C23.8462 54.902 23.4982 54.752 23.0602 54.752C22.6222 54.752 22.2742 54.902 22.0162 55.202C21.7642 55.502 21.6382 55.883 21.6382 56.345V56.381H24.5002Z" />
  <path
     id="path2181"
     fill="#FEC38F"
     d="M12.1718 133.357C12.1118 133.357 12.0638 133.339 12.0278 133.303C11.9918 133.267 11.9738 133.219 11.9738 133.159V132.817C11.9738 132.757 11.9918 132.709 12.0278 132.673C12.0638 132.631 12.1118 132.61 12.1718 132.61H12.5138C12.5738 132.61 12.6218 132.631 12.6578 132.673C12.6998 132.709 12.7208 132.757 12.7208 132.817V133.159C12.7208 133.219 12.6998 133.267 12.6578 133.303C12.6218 133.339 12.5738 133.357 12.5138 133.357H12.1718ZM12.2708 139C12.2108 139 12.1628 138.982 12.1268 138.946C12.0908 138.91 12.0728 138.862 12.0728 138.802V134.518C12.0728 134.458 12.0908 134.41 12.1268 134.374C12.1628 134.338 12.2108 134.32 12.2708 134.32H12.4238C12.4838 134.32 12.5318 134.338 12.5678 134.374C12.6038 134.41 12.6218 134.458 12.6218 134.518V138.802C12.6218 138.862 12.6038 138.91 12.5678 138.946C12.5318 138.982 12.4838 139 12.4238 139H12.2708ZM14.2747 139C14.2147 139 14.1667 138.982 14.1307 138.946C14.0947 138.91 14.0767 138.862 14.0767 138.802V134.518C14.0767 134.458 14.0947 134.41 14.1307 134.374C14.1667 134.338 14.2147 134.32 14.2747 134.32H14.4277C14.4877 134.32 14.5357 134.338 14.5717 134.374C14.6077 134.41 14.6257 134.458 14.6257 134.518V134.941C14.8057 134.707 15.0097 134.53 15.2377 134.41C15.4717 134.29 15.7717 134.23 16.1377 134.23C16.7257 134.23 17.1787 134.419 17.4967 134.797C17.8147 135.169 17.9737 135.652 17.9737 136.246V138.802C17.9737 138.862 17.9557 138.91 17.9197 138.946C17.8837 138.982 17.8357 139 17.7757 139H17.6227C17.5627 139 17.5147 138.982 17.4787 138.946C17.4427 138.91 17.4247 138.862 17.4247 138.802V136.291C17.4247 135.805 17.3047 135.427 17.0647 135.157C16.8307 134.887 16.4917 134.752 16.0477 134.752C15.6157 134.752 15.2707 134.89 15.0127 135.166C14.7547 135.436 14.6257 135.811 14.6257 136.291V138.802C14.6257 138.862 14.6077 138.91 14.5717 138.946C14.5357 138.982 14.4877 139 14.4277 139H14.2747Z" />
  <rect
     ry="4.108108"
     y="145"
     x="2"
     height="38"
     width="26"
     id="rect2766"
     style="fill:#3a3345;stroke:#211e29;stroke-width:0" />
  <path
     id="path2183"
     fill="#FEC38F"
     d="M10.7522 179.09C10.1282 179.09 9.64221 178.901 9.29421 178.523C8.95221 178.139 8.77221 177.644 8.75421 177.038L8.74521 176.66L8.75421 176.282C8.77221 175.676 8.95221 175.184 9.29421 174.806C9.64221 174.422 10.1282 174.23 10.7522 174.23C11.3762 174.23 11.8592 174.422 12.2012 174.806C12.5492 175.184 12.7322 175.676 12.7502 176.282C12.7562 176.342 12.7592 176.468 12.7592 176.66C12.7592 176.852 12.7562 176.978 12.7502 177.038C12.7322 177.644 12.5492 178.139 12.2012 178.523C11.8592 178.901 11.3762 179.09 10.7522 179.09ZM10.7522 178.568C11.1782 178.568 11.5202 178.433 11.7782 178.163C12.0422 177.887 12.1832 177.497 12.2012 176.993C12.2072 176.933 12.2102 176.822 12.2102 176.66C12.2102 176.498 12.2072 176.387 12.2012 176.327C12.1832 175.823 12.0422 175.436 11.7782 175.166C11.5202 174.89 11.1782 174.752 10.7522 174.752C10.3262 174.752 9.98121 174.89 9.71721 175.166C9.45921 175.436 9.32121 175.823 9.30321 176.327L9.29421 176.66L9.30321 176.993C9.32121 177.497 9.45921 177.887 9.71721 178.163C9.98121 178.433 10.3262 178.568 10.7522 178.568ZM15.7438 179.09C15.1558 179.09 14.7088 178.904 14.4028 178.532C14.0968 178.16 13.9438 177.674 13.9438 177.074V174.518C13.9438 174.458 13.9618 174.41 13.9978 174.374C14.0338 174.338 14.0818 174.32 14.1418 174.32H14.2948C14.3548 174.32 14.4028 174.338 14.4388 174.374C14.4748 174.41 14.4928 174.458 14.4928 174.518V177.029C14.4928 178.055 14.9398 178.568 15.8338 178.568C16.2658 178.568 16.6078 178.433 16.8598 178.163C17.1178 177.887 17.2468 177.509 17.2468 177.029V174.518C17.2468 174.458 17.2648 174.41 17.3008 174.374C17.3368 174.338 17.3848 174.32 17.4448 174.32H17.5978C17.6578 174.32 17.7058 174.338 17.7418 174.374C17.7778 174.41 17.7958 174.458 17.7958 174.518V178.802C17.7958 178.862 17.7778 178.91 17.7418 178.946C17.7058 178.982 17.6578 179 17.5978 179H17.4448C17.3848 179 17.3368 178.982 17.3008 178.946C17.2648 178.91 17.2468 178.862 17.2468 178.802V178.379C17.0668 178.613 16.8598 178.79 16.6258 178.91C16.3978 179.03 16.1038 179.09 15.7438 179.09ZM20.8284 179C20.3844 179 20.0694 178.868 19.8834 178.604C19.6974 178.334 19.6044 177.965 19.6044 177.497V174.842H18.9024C18.8424 174.842 18.7944 174.824 18.7584 174.788C18.7224 174.752 18.7044 174.704 18.7044 174.644V174.518C18.7044 174.458 18.7224 174.41 18.7584 174.374C18.7944 174.338 18.8424 174.32 18.9024 174.32H19.6044V172.808C19.6044 172.748 19.6224 172.7 19.6584 172.664C19.6944 172.628 19.7424 172.61 19.8024 172.61H19.9554C20.0154 172.61 20.0634 172.628 20.0994 172.664C20.1354 172.7 20.1534 172.748 20.1534 172.808V174.32H21.2694C21.3294 174.32 21.3774 174.338 21.4134 174.374C21.4494 174.41 21.4674 174.458 21.4674 174.518V174.644C21.4674 174.704 21.4494 174.752 21.4134 174.788C21.3774 174.824 21.3294 174.842 21.2694 174.842H20.1534V177.461C20.1534 177.797 20.2074 178.052 20.3154 178.226C20.4294 178.394 20.6154 178.478 20.8734 178.478H21.3594C21.4194 178.478 21.4674 178.496 21.5034 178.532C21.5394 178.568 21.5574 178.616 21.5574 178.676V178.802C21.5574 178.862 21.5394 178.91 21.5034 178.946C21.4674 178.982 21.4194 179 21.3594 179H20.8284Z" />
  <path
     id="path2185"
     fill="#FEC38F"
     d="M5.87428 269.09C5.25028 269.09 4.76428 268.901 4.41628 268.523C4.07428 268.139 3.89428 267.644 3.87628 267.038L3.86728 266.66L3.87628 266.282C3.89428 265.676 4.07428 265.184 4.41628 264.806C4.76428 264.422 5.25028 264.23 5.87428 264.23C6.49828 264.23 6.98128 264.422 7.32328 264.806C7.67128 265.184 7.85428 265.676 7.87228 266.282C7.87828 266.342 7.88128 266.468 7.88128 266.66C7.88128 266.852 7.87828 266.978 7.87228 267.038C7.85428 267.644 7.67128 268.139 7.32328 268.523C6.98128 268.901 6.49828 269.09 5.87428 269.09ZM5.87428 268.568C6.30028 268.568 6.64228 268.433 6.90028 268.163C7.16428 267.887 7.30528 267.497 7.32328 266.993C7.32928 266.933 7.33228 266.822 7.33228 266.66C7.33228 266.498 7.32928 266.387 7.32328 266.327C7.30528 265.823 7.16428 265.436 6.90028 265.166C6.64228 264.89 6.30028 264.752 5.87428 264.752C5.44828 264.752 5.10328 264.89 4.83928 265.166C4.58128 265.436 4.44328 265.823 4.42528 266.327L4.41628 266.66L4.42528 266.993C4.44328 267.497 4.58128 267.887 4.83928 268.163C5.10328 268.433 5.44828 268.568 5.87428 268.568ZM9.68831 269C9.62831 269 9.58031 268.982 9.54431 268.946C9.50831 268.91 9.49031 268.862 9.49031 268.802V264.842H8.68931C8.62931 264.842 8.58131 264.824 8.54531 264.788C8.50931 264.752 8.49131 264.704 8.49131 264.644V264.518C8.49131 264.458 8.50931 264.41 8.54531 264.374C8.58131 264.338 8.62931 264.32 8.68931 264.32H9.49031V263.807C9.49031 263.351 9.58931 262.994 9.78731 262.736C9.98531 262.472 10.3393 262.34 10.8493 262.34H11.3173C11.3773 262.34 11.4253 262.358 11.4613 262.394C11.4973 262.43 11.5153 262.478 11.5153 262.538V262.664C11.5153 262.724 11.4973 262.772 11.4613 262.808C11.4253 262.844 11.3773 262.862 11.3173 262.862H10.8493C10.5433 262.862 10.3303 262.943 10.2103 263.105C10.0963 263.261 10.0393 263.51 10.0393 263.852V264.32H12.0283V263.807C12.0283 263.351 12.1273 262.994 12.3253 262.736C12.5233 262.472 12.8773 262.34 13.3873 262.34H13.8553C13.9153 262.34 13.9633 262.358 13.9993 262.394C14.0353 262.43 14.0533 262.478 14.0533 262.538V262.664C14.0533 262.724 14.0353 262.772 13.9993 262.808C13.9633 262.844 13.9153 262.862 13.8553 262.862H13.3873C13.0813 262.862 12.8683 262.943 12.7483 263.105C12.6343 263.261 12.5773 263.51 12.5773 263.852V264.32H13.7653C13.8253 264.32 13.8733 264.338 13.9093 264.374C13.9453 264.41 13.9633 264.458 13.9633 264.518V264.644C13.9633 264.704 13.9453 264.752 13.9093 264.788C13.8733 264.824 13.8253 264.842 13.7653 264.842H12.5773V268.802C12.5773 268.862 12.5593 268.91 12.5233 268.946C12.4873 268.982 12.4393 269 12.3793 269H12.2263C12.1663 269 12.1183 268.982 12.0823 268.946C12.0463 268.91 12.0283 268.862 12.0283 268.802V264.842H10.0393V268.802C10.0393 268.862 10.0213 268.91 9.98531 268.946C9.94931 268.982 9.90131 269 9.84131 269H9.68831ZM16.3087 269.09C15.9187 269.09 15.5887 269.024 15.3187 268.892C15.0547 268.76 14.8537 268.61 14.7157 268.442C14.5837 268.274 14.5177 268.139 14.5177 268.037C14.5177 267.983 14.5387 267.941 14.5807 267.911C14.6227 267.875 14.6677 267.857 14.7157 267.857H14.8507C14.8927 267.857 14.9257 267.866 14.9497 267.884C14.9797 267.896 15.0127 267.926 15.0487 267.974C15.1807 268.16 15.3397 268.307 15.5257 268.415C15.7177 268.517 15.9787 268.568 16.3087 268.568C16.6807 268.568 16.9807 268.499 17.2087 268.361C17.4367 268.217 17.5507 268.013 17.5507 267.749C17.5507 267.587 17.5027 267.455 17.4067 267.353C17.3167 267.251 17.1667 267.164 16.9567 267.092C16.7527 267.014 16.4467 266.927 16.0387 266.831C15.5047 266.711 15.1387 266.546 14.9407 266.336C14.7487 266.126 14.6527 265.859 14.6527 265.535C14.6527 265.313 14.7127 265.103 14.8327 264.905C14.9587 264.707 15.1417 264.545 15.3817 264.419C15.6277 264.293 15.9217 264.23 16.2637 264.23C16.6237 264.23 16.9267 264.293 17.1727 264.419C17.4247 264.539 17.6107 264.68 17.7307 264.842C17.8567 265.004 17.9197 265.136 17.9197 265.238C17.9197 265.292 17.8987 265.337 17.8567 265.373C17.8207 265.403 17.7757 265.418 17.7217 265.418H17.5867C17.5027 265.418 17.4367 265.379 17.3887 265.301C17.2687 265.121 17.1307 264.986 16.9747 264.896C16.8247 264.8 16.5877 264.752 16.2637 264.752C15.9157 264.752 15.6517 264.824 15.4717 264.968C15.2917 265.112 15.2017 265.301 15.2017 265.535C15.2017 265.679 15.2377 265.799 15.3097 265.895C15.3817 265.991 15.5167 266.081 15.7147 266.165C15.9127 266.243 16.2007 266.324 16.5787 266.408C17.1367 266.534 17.5297 266.702 17.7577 266.912C17.9857 267.122 18.0997 267.401 18.0997 267.749C18.0997 267.995 18.0307 268.22 17.8927 268.424C17.7547 268.628 17.5507 268.79 17.2807 268.91C17.0107 269.03 16.6867 269.09 16.3087 269.09ZM20.9904 269.09C20.4204 269.09 19.9614 268.904 19.6134 268.532C19.2654 268.154 19.0674 267.65 19.0194 267.02L19.0104 266.66L19.0194 266.3C19.0674 265.676 19.2624 265.175 19.6044 264.797C19.9524 264.419 20.4144 264.23 20.9904 264.23C21.6144 264.23 22.1004 264.437 22.4484 264.851C22.8024 265.265 22.9794 265.832 22.9794 266.552V266.687C22.9794 266.747 22.9584 266.795 22.9164 266.831C22.8804 266.867 22.8324 266.885 22.7724 266.885H19.5684V266.975C19.5804 267.257 19.6434 267.521 19.7574 267.767C19.8774 268.007 20.0424 268.202 20.2524 268.352C20.4624 268.496 20.7084 268.568 20.9904 268.568C21.3204 268.568 21.5874 268.505 21.7914 268.379C22.0014 268.247 22.1514 268.115 22.2414 267.983C22.2954 267.911 22.3344 267.866 22.3584 267.848C22.3884 267.83 22.4394 267.821 22.5114 267.821H22.6554C22.7094 267.821 22.7544 267.836 22.7904 267.866C22.8264 267.896 22.8444 267.935 22.8444 267.983C22.8444 268.109 22.7634 268.262 22.6014 268.442C22.4454 268.616 22.2264 268.769 21.9444 268.901C21.6624 269.027 21.3444 269.09 20.9904 269.09ZM22.4304 266.381V266.345C22.4304 265.883 22.2984 265.502 22.0344 265.202C21.7764 264.902 21.4284 264.752 20.9904 264.752C20.5524 264.752 20.2044 264.902 19.9464 265.202C19.6944 265.502 19.5684 265.883 19.5684 266.345V266.381H22.4304ZM25.7063 269C25.2623 269 24.9473 268.868 24.7613 268.604C24.5753 268.334 24.4823 267.965 24.4823 267.497V264.842H23.7803C23.7203 264.842 23.6723 264.824 23.6363 264.788C23.6003 264.752 23.5823 264.704 23.5823 264.644V264.518C23.5823 264.458 23.6003 264.41 23.6363 264.374C23.6723 264.338 23.7203 264.32 23.7803 264.32H24.4823V262.808C24.4823 262.748 24.5003 262.7 24.5363 262.664C24.5723 262.628 24.6203 262.61 24.6803 262.61H24.8333C24.8933 262.61 24.9413 262.628 24.9773 262.664C25.0133 262.7 25.0313 262.748 25.0313 262.808V264.32H26.1473C26.2073 264.32 26.2553 264.338 26.2913 264.374C26.3273 264.41 26.3453 264.458 26.3453 264.518V264.644C26.3453 264.704 26.3273 264.752 26.2913 264.788C26.2553 264.824 26.2073 264.842 26.1473 264.842H25.0313V267.461C25.0313 267.797 25.0853 268.052 25.1933 268.226C25.3073 268.394 25.4933 268.478 25.7513 268.478H26.2373C26.2973 268.478 26.3453 268.496 26.3813 268.532C26.4173 268.568 26.4353 268.616 26.4353 268.676V268.802C26.4353 268.862 26.4173 268.91 26.3813 268.946C26.3453 268.982 26.2973 269 26.2373 269H25.7063Z" />
  <path
     id="path2187"
     fill="#FEC38F"
     d="M12.1718 303.357C12.1118 303.357 12.0638 303.339 12.0278 303.303C11.9918 303.267 11.9738 303.219 11.9738 303.159V302.817C11.9738 302.757 11.9918 302.709 12.0278 302.673C12.0638 302.631 12.1118 302.61 12.1718 302.61H12.5138C12.5738 302.61 12.6218 302.631 12.6578 302.673C12.6998 302.709 12.7208 302.757 12.7208 302.817V303.159C12.7208 303.219 12.6998 303.267 12.6578 303.303C12.6218 303.339 12.5738 303.357 12.5138 303.357H12.1718ZM12.2708 309C12.2108 309 12.1628 308.982 12.1268 308.946C12.0908 308.91 12.0728 308.862 12.0728 308.802V304.518C12.0728 304.458 12.0908 304.41 12.1268 304.374C12.1628 304.338 12.2108 304.32 12.2708 304.32H12.4238C12.4838 304.32 12.5318 304.338 12.5678 304.374C12.6038 304.41 12.6218 304.458 12.6218 304.518V308.802C12.6218 308.862 12.6038 308.91 12.5678 308.946C12.5318 308.982 12.4838 309 12.4238 309H12.2708ZM14.2747 309C14.2147 309 14.1667 308.982 14.1307 308.946C14.0947 308.91 14.0767 308.862 14.0767 308.802V304.518C14.0767 304.458 14.0947 304.41 14.1307 304.374C14.1667 304.338 14.2147 304.32 14.2747 304.32H14.4277C14.4877 304.32 14.5357 304.338 14.5717 304.374C14.6077 304.41 14.6257 304.458 14.6257 304.518V304.941C14.8057 304.707 15.0097 304.53 15.2377 304.41C15.4717 304.29 15.7717 304.23 16.1377 304.23C16.7257 304.23 17.1787 304.419 17.4967 304.797C17.8147 305.169 17.9737 305.652 17.9737 306.246V308.802C17.9737 308.862 17.9557 308.91 17.9197 308.946C17.8837 308.982 17.8357 309 17.7757 309H17.6227C17.5627 309 17.5147 308.982 17.4787 308.946C17.4427 308.91 17.4247 308.862 17.4247 308.802V306.291C17.4247 305.805 17.3047 305.427 17.0647 305.157C16.8307 304.887 16.4917 304.752 16.0477 304.752C15.6157 304.752 15.2707 304.89 15.0127 305.166C14.7547 305.436 14.6257 305.811 14.6257 306.291V308.802C14.6257 308.862 14.6077 308.91 14.5717 308.946C14.5357 308.982 14.4877 309 14.4277 309H14.2747Z" />
  <rect
     style="fill:#3a3345;stroke:#211e29;stroke-width:0"
     id="rect2766-6"
     width="26"
     height="38"
     x="2"
     y="315"
     ry="4.108108" />
  <path
     id="path2189"
     fill="#FEC38F"
     d="M10.7522 349.09C10.1282 349.09 9.64221 348.901 9.29421 348.523C8.95221 348.139 8.77221 347.644 8.75421 347.038L8.74521 346.66L8.75421 346.282C8.77221 345.676 8.95221 345.184 9.29421 344.806C9.64221 344.422 10.1282 344.23 10.7522 344.23C11.3762 344.23 11.8592 344.422 12.2012 344.806C12.5492 345.184 12.7322 345.676 12.7502 346.282C12.7562 346.342 12.7592 346.468 12.7592 346.66C12.7592 346.852 12.7562 346.978 12.7502 347.038C12.7322 347.644 12.5492 348.139 12.2012 348.523C11.8592 348.901 11.3762 349.09 10.7522 349.09ZM10.7522 348.568C11.1782 348.568 11.5202 348.433 11.7782 348.163C12.0422 347.887 12.1832 347.497 12.2012 346.993C12.2072 346.933 12.2102 346.822 12.2102 346.66C12.2102 346.498 12.2072 346.387 12.2012 346.327C12.1832 345.823 12.0422 345.436 11.7782 345.166C11.5202 344.89 11.1782 344.752 10.7522 344.752C10.3262 344.752 9.98121 344.89 9.71721 345.166C9.45921 345.436 9.32121 345.823 9.30321 346.327L9.29421 346.66L9.30321 346.993C9.32121 347.497 9.45921 347.887 9.71721 348.163C9.98121 348.433 10.3262 348.568 10.7522 348.568ZM15.7438 349.09C15.1558 349.09 14.7088 348.904 14.4028 348.532C14.0968 348.16 13.9438 347.674 13.9438 347.074V344.518C13.9438 344.458 13.9618 344.41 13.9978 344.374C14.0338 344.338 14.0818 344.32 14.1418 344.32H14.2948C14.3548 344.32 14.4028 344.338 14.4388 344.374C14.4748 344.41 14.4928 344.458 14.4928 344.518V347.029C14.4928 348.055 14.9398 348.568 15.8338 348.568C16.2658 348.568 16.6078 348.433 16.8598 348.163C17.1178 347.887 17.2468 347.509 17.2468 347.029V344.518C17.2468 344.458 17.2648 344.41 17.3008 344.374C17.3368 344.338 17.3848 344.32 17.4448 344.32H17.5978C17.6578 344.32 17.7058 344.338 17.7418 344.374C17.7778 344.41 17.7958 344.458 17.7958 344.518V348.802C17.7958 348.862 17.7778 348.91 17.7418 348.946C17.7058 348.982 17.6578 349 17.5978 349H17.4448C17.3848 349 17.3368 348.982 17.3008 348.946C17.2648 348.91 17.2468 348.862 17.2468 348.802V348.379C17.0668 348.613 16.8598 348.79 16.6258 348.91C16.3978 349.03 16.1038 349.09 15.7438 349.09ZM20.8284 349C20.3844 349 20.0694 348.868 19.8834 348.604C19.6974 348.334 19.6044 347.965 19.6044 347.497V344.842H18.9024C18.8424 344.842 18.7944 344.824 18.7584 344.788C18.7224 344.752 18.7044 344.704 18.7044 344.644V344.518C18.7044 344.458 18.7224 344.41 18.7584 344.374C18.7944 344.338 18.8424 344.32 18.9024 344.32H19.6044V342.808C19.6044 342.748 19.6224 342.7 19.6584 342.664C19.6944 342.628 19.7424 342.61 19.8024 342.61H19.9554C20.0154 342.61 20.0634 342.628 20.0994 342.664C20.1354 342.7 20.1534 342.748 20.1534 342.808V344.32H21.2694C21.3294 344.32 21.3774 344.338 21.4134 344.374C21.4494 344.41 21.4674 344.458 21.4674 344.518V344.644C21.4674 344.704 21.4494 344.752 21.4134 344.788C21.3774 344.824 21.3294 344.842 21.2694 344.842H20.1534V347.461C20.1534 347.797 20.2074 348.052 20.3154 348.226C20.4294 348.394 20.6154 348.478 20.8734 348.478H21.3594C21.4194 348.478 21.4674 348.496 21.5034 348.532C21.5394 348.568 21.5574 348.616 21.5574 348.676V348.802C21.5574 348.862 21.5394 348.91 21.5034 348.946C21.4674 348.982 21.4194 349 21.3594 349H20.8284Z" />
  <line
     id="line2191"
     stroke-width="0.5"
     stroke="#FEC38F"
     y2="19.75"
     x2="30"
     y1="19.75" />
  <line
     id="line2193"
     stroke-width="0.5"
     stroke="#FEC38F"
     y2="189.75"
     x2="30"
     y1="189.75" />
  <g
     transform="translate(9,361)"
     id="layer1"
     inkscape:label="Layer 1">
    <path
       d="M 10.999394,5.9824858 A 5,5 0 0 1 8.5230364,10.362239 5,5 0 0 1 3.4916846,10.371051 5,5 0 0 1 1.0000002,6.0000001"
       style="d:M 10.999394,5.9824858 A 5,5 0 0 1 8.5230364,10.362239 5,5 0 0 1 3.4916846,10.371051 5,5 0 0 1 1.0000002,6.0000001;fill:#715f95;stroke:#211e29;stroke-width:0"
       id="path835" />
    <path
       sodipodi:nodetypes="cccccc"
       inkscape:connector-curvature="0"
       id="path839"
       d="M 1,6 V 1 L 4,5 6,1 c 0,1.6089212 0,3.3141268 0,5 z"
       style="fill:#715f95;fill-opacity:1;stroke:#000000;stroke-width:0;stroke-linecap:butt;stroke-linejoin:miter;stroke-miterlimit:4;stroke-dasharray:none;stroke-opacity:1" />
    <path
       style="fill:#715f95;fill-opacity:1;stroke:#000000;stroke-width:0;stroke-linecap:butt;stroke-linejoin:miter;stroke-miterlimit:4;stroke-dasharray:none;stroke-opacity:1"
       d="M 11,6 V 1 L 8,5 6,1 c 0,1.6089212 0,3.3141268 0,5 z"
       id="path839-8"
       inkscape:connector-curvature="0"
       sodipodi:nodetypes="cccccc" />
  </g>
</svg>
