<?xml version="1.0" encoding="UTF-8" standalone="no"?>
<svg
   xmlns:dc="http://purl.org/dc/elements/1.1/"
   xmlns:cc="http://creativecommons.org/ns#"
   xmlns:rdf="http://www.w3.org/1999/02/22-rdf-syntax-ns#"
   xmlns:svg="http://www.w3.org/2000/svg"
   xmlns="http://www.w3.org/2000/svg"
   xmlns:sodipodi="http://sodipodi.sourceforge.net/DTD/sodipodi-0.dtd"
   xmlns:inkscape="http://www.inkscape.org/namespaces/inkscape"
   width="30"
   height="380"
   viewBox="0 0 30 380"
   fill="none"
   version="1.1"
   id="svg969"
   sodipodi:docname="dadr.svg"
   inkscape:version="1.0alpha2 (4ce689b25c, 2019-06-24)">
  <metadata
     id="metadata975">
    <rdf:RDF>
      <cc:Work
         rdf:about="">
        <dc:format>image/svg+xml</dc:format>
        <dc:type
           rdf:resource="http://purl.org/dc/dcmitype/StillImage" />
        <dc:title />
      </cc:Work>
    </rdf:RDF>
  </metadata>
  <defs
     id="defs973">
    <clipPath
       id="clip0">
      <rect
         style="fill:#ffffff"
         y="0"
         x="0"
         id="rect5119"
         height="22"
         width="22" />
    </clipPath>
  </defs>
  <sodipodi:namedview
     pagecolor="#525252"
     bordercolor="#666666"
     borderopacity="1"
     objecttolerance="10"
     gridtolerance="15"
     guidetolerance="10"
     inkscape:pageopacity="0"
     inkscape:pageshadow="2"
     inkscape:window-width="1920"
     inkscape:window-height="1018"
     id="namedview971"
     showgrid="true"
     inkscape:zoom="14.052817"
     inkscape:cx="32.701181"
     inkscape:cy="373.68623"
     inkscape:window-x="-6"
     inkscape:window-y="-6"
     inkscape:window-maximized="1"
     inkscape:current-layer="svg969"
     inkscape:document-rotation="0">
    <inkscape:grid
       type="xygrid"
       id="grid2043"
       empcolor="#6666ff"
       empopacity="0.25098039"
       color="#5252f4"
       opacity="0.1254902" />
  </sodipodi:namedview>
  <rect
     width="30"
     height="380"
     fill="#211E29"
     id="rect949" />
  <path
     d="M5.96433 14.12C5.10033 14.12 4.46033 13.84 4.04433 13.28C3.63633 12.712 3.42033 12.024 3.39633 11.216L3.38433 10.88L3.39633 10.544C3.42033 9.736 3.63633 9.052 4.04433 8.492C4.46033 7.924 5.10033 7.64 5.96433 7.64C6.83633 7.64 7.50833 7.956 7.98033 8.588V5.744C7.98033 5.664 8.00433 5.6 8.05233 5.552C8.10033 5.504 8.16433 5.48 8.24433 5.48H8.44833C8.52833 5.48 8.59233 5.504 8.64033 5.552C8.68833 5.6 8.71233 5.664 8.71233 5.744V13.736C8.71233 13.816 8.68833 13.88 8.64033 13.928C8.59233 13.976 8.52833 14 8.44833 14H8.24433C8.16433 14 8.10033 13.976 8.05233 13.928C8.00433 13.88 7.98033 13.816 7.98033 13.736V13.172C7.51633 13.804 6.84433 14.12 5.96433 14.12ZM6.03633 13.424C6.66833 13.424 7.14433 13.216 7.46433 12.8C7.78433 12.376 7.95633 11.88 7.98033 11.312C7.98833 11.232 7.99233 11.076 7.99233 10.844C7.99233 10.612 7.98833 10.456 7.98033 10.376C7.97233 10.032 7.89633 9.708 7.75233 9.404C7.60833 9.092 7.39233 8.836 7.10433 8.636C6.81633 8.436 6.46033 8.336 6.03633 8.336C5.38833 8.336 4.91233 8.544 4.60833 8.96C4.31233 9.368 4.15233 9.896 4.12833 10.544L4.11633 10.88C4.11633 11.624 4.26033 12.236 4.54833 12.716C4.83633 13.188 5.33233 13.424 6.03633 13.424ZM12.3493 14.12C11.9653 14.12 11.6093 14.04 11.2813 13.88C10.9533 13.72 10.6893 13.504 10.4893 13.232C10.2973 12.96 10.2013 12.66 10.2013 12.332C10.2013 11.804 10.4133 11.372 10.8373 11.036C11.2693 10.7 11.8493 10.484 12.5773 10.388L14.4733 10.124V9.704C14.4733 9.264 14.3373 8.928 14.0653 8.696C13.8013 8.456 13.3933 8.336 12.8413 8.336C12.4333 8.336 12.0973 8.416 11.8333 8.576C11.5773 8.736 11.4133 8.928 11.3413 9.152C11.3093 9.248 11.2693 9.316 11.2213 9.356C11.1813 9.388 11.1253 9.404 11.0533 9.404H10.8853C10.8133 9.404 10.7493 9.38 10.6933 9.332C10.6453 9.276 10.6213 9.212 10.6213 9.14C10.6213 8.964 10.7013 8.76 10.8613 8.528C11.0213 8.288 11.2693 8.08 11.6053 7.904C11.9413 7.728 12.3533 7.64 12.8413 7.64C13.6973 7.64 14.3053 7.844 14.6653 8.252C15.0253 8.66 15.2053 9.156 15.2053 9.74V13.736C15.2053 13.816 15.1813 13.88 15.1333 13.928C15.0853 13.976 15.0213 14 14.9413 14H14.7373C14.6573 14 14.5933 13.976 14.5453 13.928C14.4973 13.88 14.4733 13.816 14.4733 13.736V13.172C14.2973 13.436 14.0373 13.66 13.6933 13.844C13.3573 14.028 12.9093 14.12 12.3493 14.12ZM12.4693 13.424C13.0533 13.424 13.5333 13.232 13.9093 12.848C14.2853 12.464 14.4733 11.912 14.4733 11.192V10.784L12.9253 11C12.2693 11.088 11.7733 11.24 11.4373 11.456C11.1013 11.672 10.9333 11.944 10.9333 12.272C10.9333 12.64 11.0853 12.924 11.3893 13.124C11.7013 13.324 12.0613 13.424 12.4693 13.424ZM19.3589 14.12C18.4949 14.12 17.8549 13.84 17.4389 13.28C17.0309 12.712 16.8149 12.024 16.7909 11.216L16.7789 10.88L16.7909 10.544C16.8149 9.736 17.0309 9.052 17.4389 8.492C17.8549 7.924 18.4949 7.64 19.3589 7.64C20.2309 7.64 20.9029 7.956 21.3749 8.588V5.744C21.3749 5.664 21.3989 5.6 21.4469 5.552C21.4949 5.504 21.5589 5.48 21.6389 5.48H21.8429C21.9229 5.48 21.9869 5.504 22.0349 5.552C22.0829 5.6 22.1069 5.664 22.1069 5.744V13.736C22.1069 13.816 22.0829 13.88 22.0349 13.928C21.9869 13.976 21.9229 14 21.8429 14H21.6389C21.5589 14 21.4949 13.976 21.4469 13.928C21.3989 13.88 21.3749 13.816 21.3749 13.736V13.172C20.9109 13.804 20.2389 14.12 19.3589 14.12ZM19.4309 13.424C20.0629 13.424 20.5389 13.216 20.8589 12.8C21.1789 12.376 21.3509 11.88 21.3749 11.312C21.3829 11.232 21.3869 11.076 21.3869 10.844C21.3869 10.612 21.3829 10.456 21.3749 10.376C21.3669 10.032 21.2909 9.708 21.1469 9.404C21.0029 9.092 20.7869 8.836 20.4989 8.636C20.2109 8.436 19.8549 8.336 19.4309 8.336C18.7829 8.336 18.3069 8.544 18.0029 8.96C17.7069 9.368 17.5469 9.896 17.5229 10.544L17.5109 10.88C17.5109 11.624 17.6549 12.236 17.9429 12.716C18.2309 13.188 18.7269 13.424 19.4309 13.424ZM24.3278 14C24.2478 14 24.1838 13.976 24.1358 13.928C24.0878 13.88 24.0638 13.816 24.0638 13.736V8.036C24.0638 7.956 24.0878 7.892 24.1358 7.844C24.1838 7.788 24.2478 7.76 24.3278 7.76H24.5198C24.5998 7.76 24.6638 7.788 24.7118 7.844C24.7678 7.892 24.7958 7.956 24.7958 8.036V8.588C25.0838 8.036 25.6278 7.76 26.4278 7.76H26.8718C26.9518 7.76 27.0158 7.784 27.0638 7.832C27.1118 7.88 27.1358 7.944 27.1358 8.024V8.192C27.1358 8.272 27.1118 8.336 27.0638 8.384C27.0158 8.432 26.9518 8.456 26.8718 8.456H26.3558C25.8758 8.456 25.4958 8.596 25.2158 8.876C24.9358 9.156 24.7958 9.536 24.7958 10.016V13.736C24.7958 13.816 24.7678 13.88 24.7118 13.928C24.6638 13.976 24.5998 14 24.5198 14H24.3278Z"
     fill="#FEC38F"
     id="path951" />
  <path
     d="M4.86097 69.09C4.47097 69.09 4.14097 69.024 3.87097 68.892C3.60697 68.76 3.40597 68.61 3.26797 68.442C3.13597 68.274 3.06997 68.139 3.06997 68.037C3.06997 67.983 3.09097 67.941 3.13297 67.911C3.17497 67.875 3.21997 67.857 3.26797 67.857H3.40297C3.44497 67.857 3.47797 67.866 3.50197 67.884C3.53197 67.896 3.56497 67.926 3.60097 67.974C3.73297 68.16 3.89197 68.307 4.07797 68.415C4.26997 68.517 4.53097 68.568 4.86097 68.568C5.23297 68.568 5.53297 68.499 5.76097 68.361C5.98897 68.217 6.10297 68.013 6.10297 67.749C6.10297 67.587 6.05497 67.455 5.95897 67.353C5.86897 67.251 5.71897 67.164 5.50897 67.092C5.30497 67.014 4.99897 66.927 4.59097 66.831C4.05697 66.711 3.69097 66.546 3.49297 66.336C3.30097 66.126 3.20497 65.859 3.20497 65.535C3.20497 65.313 3.26497 65.103 3.38497 64.905C3.51097 64.707 3.69397 64.545 3.93397 64.419C4.17997 64.293 4.47397 64.23 4.81597 64.23C5.17597 64.23 5.47897 64.293 5.72497 64.419C5.97697 64.539 6.16297 64.68 6.28297 64.842C6.40897 65.004 6.47197 65.136 6.47197 65.238C6.47197 65.292 6.45097 65.337 6.40897 65.373C6.37297 65.403 6.32797 65.418 6.27397 65.418H6.13897C6.05497 65.418 5.98897 65.379 5.94097 65.301C5.82097 65.121 5.68297 64.986 5.52697 64.896C5.37697 64.8 5.13997 64.752 4.81597 64.752C4.46797 64.752 4.20397 64.824 4.02397 64.968C3.84397 65.112 3.75397 65.301 3.75397 65.535C3.75397 65.679 3.78997 65.799 3.86197 65.895C3.93397 65.991 4.06897 66.081 4.26697 66.165C4.46497 66.243 4.75297 66.324 5.13097 66.408C5.68897 66.534 6.08197 66.702 6.30997 66.912C6.53797 67.122 6.65197 67.401 6.65197 67.749C6.65197 67.995 6.58297 68.22 6.44497 68.424C6.30697 68.628 6.10297 68.79 5.83297 68.91C5.56297 69.03 5.23897 69.09 4.86097 69.09ZM8.01266 70.71C7.95266 70.71 7.90466 70.692 7.86866 70.656C7.83266 70.62 7.81466 70.572 7.81466 70.512V64.518C7.81466 64.458 7.83266 64.41 7.86866 64.374C7.90466 64.338 7.95266 64.32 8.01266 64.32H8.16566C8.22566 64.32 8.27366 64.338 8.30966 64.374C8.34566 64.41 8.36366 64.458 8.36366 64.518V64.941C8.71166 64.467 9.21566 64.23 9.87566 64.23C10.5237 64.23 11.0007 64.437 11.3067 64.851C11.6187 65.259 11.7837 65.763 11.8017 66.363C11.8077 66.423 11.8107 66.522 11.8107 66.66C11.8107 66.798 11.8077 66.897 11.8017 66.957C11.7837 67.557 11.6187 68.064 11.3067 68.478C11.0007 68.886 10.5237 69.09 9.87566 69.09C9.22166 69.09 8.71766 68.853 8.36366 68.379V70.512C8.36366 70.572 8.34566 70.62 8.30966 70.656C8.27366 70.692 8.22566 70.71 8.16566 70.71H8.01266ZM9.82166 68.568C10.3077 68.568 10.6617 68.415 10.8837 68.109C11.1117 67.797 11.2347 67.398 11.2527 66.912C11.2587 66.852 11.2617 66.768 11.2617 66.66C11.2617 66.102 11.1537 65.646 10.9377 65.292C10.7217 64.932 10.3497 64.752 9.82166 64.752C9.34766 64.752 8.99066 64.911 8.75066 65.229C8.51066 65.541 8.38166 65.91 8.36366 66.336L8.35466 66.687L8.36366 67.038C8.36966 67.296 8.42666 67.542 8.53466 67.776C8.64266 68.004 8.80466 68.193 9.02066 68.343C9.23666 68.493 9.50366 68.568 9.82166 68.568ZM14.7722 69.09C14.2022 69.09 13.7432 68.904 13.3952 68.532C13.0472 68.154 12.8492 67.65 12.8012 67.02L12.7922 66.66L12.8012 66.3C12.8492 65.676 13.0442 65.175 13.3862 64.797C13.7342 64.419 14.1962 64.23 14.7722 64.23C15.3962 64.23 15.8822 64.437 16.2302 64.851C16.5842 65.265 16.7612 65.832 16.7612 66.552V66.687C16.7612 66.747 16.7402 66.795 16.6982 66.831C16.6622 66.867 16.6142 66.885 16.5542 66.885H13.3502V66.975C13.3622 67.257 13.4252 67.521 13.5392 67.767C13.6592 68.007 13.8242 68.202 14.0342 68.352C14.2442 68.496 14.4902 68.568 14.7722 68.568C15.1022 68.568 15.3692 68.505 15.5732 68.379C15.7832 68.247 15.9332 68.115 16.0232 67.983C16.0772 67.911 16.1162 67.866 16.1402 67.848C16.1702 67.83 16.2212 67.821 16.2932 67.821H16.4372C16.4912 67.821 16.5362 67.836 16.5722 67.866C16.6082 67.896 16.6262 67.935 16.6262 67.983C16.6262 68.109 16.5452 68.262 16.3832 68.442C16.2272 68.616 16.0082 68.769 15.7262 68.901C15.4442 69.027 15.1262 69.09 14.7722 69.09ZM16.2122 66.381V66.345C16.2122 65.883 16.0802 65.502 15.8162 65.202C15.5582 64.902 15.2102 64.752 14.7722 64.752C14.3342 64.752 13.9862 64.902 13.7282 65.202C13.4762 65.502 13.3502 65.883 13.3502 66.345V66.381H16.2122ZM19.6852 69.09C19.1152 69.09 18.6562 68.904 18.3082 68.532C17.9602 68.154 17.7622 67.65 17.7142 67.02L17.7052 66.66L17.7142 66.3C17.7622 65.676 17.9572 65.175 18.2992 64.797C18.6472 64.419 19.1092 64.23 19.6852 64.23C20.3092 64.23 20.7952 64.437 21.1432 64.851C21.4972 65.265 21.6742 65.832 21.6742 66.552V66.687C21.6742 66.747 21.6532 66.795 21.6112 66.831C21.5752 66.867 21.5272 66.885 21.4672 66.885H18.2632V66.975C18.2752 67.257 18.3382 67.521 18.4522 67.767C18.5722 68.007 18.7372 68.202 18.9472 68.352C19.1572 68.496 19.4032 68.568 19.6852 68.568C20.0152 68.568 20.2822 68.505 20.4862 68.379C20.6962 68.247 20.8462 68.115 20.9362 67.983C20.9902 67.911 21.0292 67.866 21.0532 67.848C21.0832 67.83 21.1342 67.821 21.2062 67.821H21.3502C21.4042 67.821 21.4492 67.836 21.4852 67.866C21.5212 67.896 21.5392 67.935 21.5392 67.983C21.5392 68.109 21.4582 68.262 21.2962 68.442C21.1402 68.616 20.9212 68.769 20.6392 68.901C20.3572 69.027 20.0392 69.09 19.6852 69.09ZM21.1252 66.381V66.345C21.1252 65.883 20.9932 65.502 20.7292 65.202C20.4712 64.902 20.1232 64.752 19.6852 64.752C19.2472 64.752 18.8992 64.902 18.6412 65.202C18.3892 65.502 18.2632 65.883 18.2632 66.345V66.381H21.1252ZM24.5533 69.09C23.9053 69.09 23.4253 68.88 23.1133 68.46C22.8073 68.034 22.6453 67.518 22.6273 66.912L22.6183 66.66L22.6273 66.408C22.6453 65.802 22.8073 65.289 23.1133 64.869C23.4253 64.443 23.9053 64.23 24.5533 64.23C25.2073 64.23 25.7113 64.467 26.0653 64.941V62.808C26.0653 62.748 26.0833 62.7 26.1193 62.664C26.1553 62.628 26.2033 62.61 26.2633 62.61H26.4163C26.4763 62.61 26.5243 62.628 26.5603 62.664C26.5963 62.7 26.6143 62.748 26.6143 62.808V68.802C26.6143 68.862 26.5963 68.91 26.5603 68.946C26.5243 68.982 26.4763 69 26.4163 69H26.2633C26.2033 69 26.1553 68.982 26.1193 68.946C26.0833 68.91 26.0653 68.862 26.0653 68.802V68.379C25.7173 68.853 25.2133 69.09 24.5533 69.09ZM24.6073 68.568C25.0813 68.568 25.4383 68.412 25.6783 68.1C25.9183 67.782 26.0473 67.41 26.0653 66.984C26.0713 66.924 26.0743 66.807 26.0743 66.633C26.0743 66.459 26.0713 66.342 26.0653 66.282C26.0593 66.024 26.0023 65.781 25.8943 65.553C25.7863 65.319 25.6243 65.127 25.4083 64.977C25.1923 64.827 24.9253 64.752 24.6073 64.752C24.1213 64.752 23.7643 64.908 23.5363 65.22C23.3143 65.526 23.1943 65.922 23.1763 66.408L23.1673 66.66C23.1673 67.218 23.2753 67.677 23.4913 68.037C23.7073 68.391 24.0793 68.568 24.6073 68.568Z"
     fill="#FEC38F"
     id="path953" />
  <path
     d="M4.85658 119.09C4.46658 119.09 4.13658 119.024 3.86658 118.892C3.60258 118.76 3.40158 118.61 3.26358 118.442C3.13158 118.274 3.06558 118.139 3.06558 118.037C3.06558 117.983 3.08658 117.941 3.12858 117.911C3.17058 117.875 3.21558 117.857 3.26358 117.857H3.39858C3.44058 117.857 3.47358 117.866 3.49758 117.884C3.52758 117.896 3.56058 117.926 3.59658 117.974C3.72858 118.16 3.88758 118.307 4.07358 118.415C4.26558 118.517 4.52658 118.568 4.85658 118.568C5.22858 118.568 5.52858 118.499 5.75658 118.361C5.98458 118.217 6.09858 118.013 6.09858 117.749C6.09858 117.587 6.05058 117.455 5.95458 117.353C5.86458 117.251 5.71458 117.164 5.50458 117.092C5.30058 117.014 4.99458 116.927 4.58658 116.831C4.05258 116.711 3.68658 116.546 3.48858 116.336C3.29658 116.126 3.20058 115.859 3.20058 115.535C3.20058 115.313 3.26058 115.103 3.38058 114.905C3.50658 114.707 3.68958 114.545 3.92958 114.419C4.17558 114.293 4.46958 114.23 4.81158 114.23C5.17158 114.23 5.47458 114.293 5.72058 114.419C5.97258 114.539 6.15858 114.68 6.27858 114.842C6.40458 115.004 6.46758 115.136 6.46758 115.238C6.46758 115.292 6.44658 115.337 6.40458 115.373C6.36858 115.403 6.32358 115.418 6.26958 115.418H6.13458C6.05058 115.418 5.98458 115.379 5.93658 115.301C5.81658 115.121 5.67858 114.986 5.52258 114.896C5.37258 114.8 5.13558 114.752 4.81158 114.752C4.46358 114.752 4.19958 114.824 4.01958 114.968C3.83958 115.112 3.74958 115.301 3.74958 115.535C3.74958 115.679 3.78558 115.799 3.85758 115.895C3.92958 115.991 4.06458 116.081 4.26258 116.165C4.46058 116.243 4.74858 116.324 5.12658 116.408C5.68458 116.534 6.07758 116.702 6.30558 116.912C6.53358 117.122 6.64758 117.401 6.64758 117.749C6.64758 117.995 6.57858 118.22 6.44058 118.424C6.30258 118.628 6.09858 118.79 5.82858 118.91C5.55858 119.03 5.23458 119.09 4.85658 119.09ZM8.00827 119C7.94827 119 7.90027 118.982 7.86427 118.946C7.82827 118.91 7.81027 118.862 7.81027 118.802V112.808C7.81027 112.748 7.82827 112.7 7.86427 112.664C7.90027 112.628 7.94827 112.61 8.00827 112.61H8.16127C8.22127 112.61 8.26927 112.628 8.30527 112.664C8.34127 112.7 8.35927 112.748 8.35927 112.808V114.941C8.53927 114.707 8.74327 114.53 8.97127 114.41C9.20527 114.29 9.50527 114.23 9.87127 114.23C10.4593 114.23 10.9123 114.419 11.2303 114.797C11.5483 115.169 11.7073 115.652 11.7073 116.246V118.802C11.7073 118.862 11.6893 118.91 11.6533 118.946C11.6173 118.982 11.5693 119 11.5093 119H11.3563C11.2963 119 11.2483 118.982 11.2123 118.946C11.1763 118.91 11.1583 118.862 11.1583 118.802V116.291C11.1583 115.805 11.0383 115.427 10.7983 115.157C10.5643 114.887 10.2253 114.752 9.78127 114.752C9.34927 114.752 9.00427 114.89 8.74627 115.166C8.48827 115.436 8.35927 115.811 8.35927 116.291V118.802C8.35927 118.862 8.34127 118.91 8.30527 118.946C8.26927 118.982 8.22127 119 8.16127 119H8.00827ZM14.3786 119.09C14.0906 119.09 13.8236 119.03 13.5776 118.91C13.3316 118.79 13.1336 118.628 12.9836 118.424C12.8396 118.22 12.7676 117.995 12.7676 117.749C12.7676 117.353 12.9266 117.029 13.2446 116.777C13.5686 116.525 14.0036 116.363 14.5496 116.291L15.9716 116.093V115.778C15.9716 115.448 15.8696 115.196 15.6656 115.022C15.4676 114.842 15.1616 114.752 14.7476 114.752C14.4416 114.752 14.1896 114.812 13.9916 114.932C13.7996 115.052 13.6766 115.196 13.6226 115.364C13.5986 115.436 13.5686 115.487 13.5326 115.517C13.5026 115.541 13.4606 115.553 13.4066 115.553H13.2806C13.2266 115.553 13.1786 115.535 13.1366 115.499C13.1006 115.457 13.0826 115.409 13.0826 115.355C13.0826 115.223 13.1426 115.07 13.2626 114.896C13.3826 114.716 13.5686 114.56 13.8206 114.428C14.0726 114.296 14.3816 114.23 14.7476 114.23C15.3896 114.23 15.8456 114.383 16.1156 114.689C16.3856 114.995 16.5206 115.367 16.5206 115.805V118.802C16.5206 118.862 16.5026 118.91 16.4666 118.946C16.4306 118.982 16.3826 119 16.3226 119H16.1696C16.1096 119 16.0616 118.982 16.0256 118.946C15.9896 118.91 15.9716 118.862 15.9716 118.802V118.379C15.8396 118.577 15.6446 118.745 15.3866 118.883C15.1346 119.021 14.7986 119.09 14.3786 119.09ZM14.4686 118.568C14.9066 118.568 15.2666 118.424 15.5486 118.136C15.8306 117.848 15.9716 117.434 15.9716 116.894V116.588L14.8106 116.75C14.3186 116.816 13.9466 116.93 13.6946 117.092C13.4426 117.254 13.3166 117.458 13.3166 117.704C13.3166 117.98 13.4306 118.193 13.6586 118.343C13.8926 118.493 14.1626 118.568 14.4686 118.568ZM18.1508 120.71C18.0908 120.71 18.0428 120.692 18.0068 120.656C17.9708 120.62 17.9528 120.572 17.9528 120.512V114.518C17.9528 114.458 17.9708 114.41 18.0068 114.374C18.0428 114.338 18.0908 114.32 18.1508 114.32H18.3038C18.3638 114.32 18.4118 114.338 18.4478 114.374C18.4838 114.41 18.5018 114.458 18.5018 114.518V114.941C18.8498 114.467 19.3538 114.23 20.0138 114.23C20.6618 114.23 21.1388 114.437 21.4448 114.851C21.7568 115.259 21.9218 115.763 21.9398 116.363C21.9458 116.423 21.9488 116.522 21.9488 116.66C21.9488 116.798 21.9458 116.897 21.9398 116.957C21.9218 117.557 21.7568 118.064 21.4448 118.478C21.1388 118.886 20.6618 119.09 20.0138 119.09C19.3598 119.09 18.8558 118.853 18.5018 118.379V120.512C18.5018 120.572 18.4838 120.62 18.4478 120.656C18.4118 120.692 18.3638 120.71 18.3038 120.71H18.1508ZM19.9598 118.568C20.4458 118.568 20.7998 118.415 21.0218 118.109C21.2498 117.797 21.3728 117.398 21.3908 116.912C21.3968 116.852 21.3998 116.768 21.3998 116.66C21.3998 116.102 21.2918 115.646 21.0758 115.292C20.8598 114.932 20.4878 114.752 19.9598 114.752C19.4858 114.752 19.1288 114.911 18.8888 115.229C18.6488 115.541 18.5198 115.91 18.5018 116.336L18.4928 116.687L18.5018 117.038C18.5078 117.296 18.5648 117.542 18.6728 117.776C18.7808 118.004 18.9428 118.193 19.1588 118.343C19.3748 118.493 19.6418 118.568 19.9598 118.568ZM24.9103 119.09C24.3403 119.09 23.8813 118.904 23.5333 118.532C23.1853 118.154 22.9873 117.65 22.9393 117.02L22.9303 116.66L22.9393 116.3C22.9873 115.676 23.1823 115.175 23.5243 114.797C23.8723 114.419 24.3343 114.23 24.9103 114.23C25.5343 114.23 26.0203 114.437 26.3683 114.851C26.7223 115.265 26.8993 115.832 26.8993 116.552V116.687C26.8993 116.747 26.8783 116.795 26.8363 116.831C26.8003 116.867 26.7523 116.885 26.6923 116.885H23.4883V116.975C23.5003 117.257 23.5633 117.521 23.6773 117.767C23.7973 118.007 23.9623 118.202 24.1723 118.352C24.3823 118.496 24.6283 118.568 24.9103 118.568C25.2403 118.568 25.5073 118.505 25.7113 118.379C25.9213 118.247 26.0713 118.115 26.1613 117.983C26.2153 117.911 26.2543 117.866 26.2783 117.848C26.3083 117.83 26.3593 117.821 26.4313 117.821H26.5753C26.6293 117.821 26.6743 117.836 26.7103 117.866C26.7463 117.896 26.7643 117.935 26.7643 117.983C26.7643 118.109 26.6833 118.262 26.5213 118.442C26.3653 118.616 26.1463 118.769 25.8643 118.901C25.5823 119.027 25.2643 119.09 24.9103 119.09ZM26.3503 116.381V116.345C26.3503 115.883 26.2183 115.502 25.9543 115.202C25.6963 114.902 25.3483 114.752 24.9103 114.752C24.4723 114.752 24.1243 114.902 23.8663 115.202C23.6143 115.502 23.4883 115.883 23.4883 116.345V116.381H26.3503Z"
     fill="#FEC38F"
     id="path955" />
  <path
     d="M6.70668 169.09C6.31668 169.09 5.98668 169.024 5.71668 168.892C5.45268 168.76 5.25168 168.61 5.11368 168.442C4.98168 168.274 4.91568 168.139 4.91568 168.037C4.91568 167.983 4.93668 167.941 4.97868 167.911C5.02068 167.875 5.06568 167.857 5.11368 167.857H5.24868C5.29068 167.857 5.32368 167.866 5.34768 167.884C5.37768 167.896 5.41068 167.926 5.44668 167.974C5.57868 168.16 5.73768 168.307 5.92368 168.415C6.11568 168.517 6.37668 168.568 6.70668 168.568C7.07868 168.568 7.37868 168.499 7.60668 168.361C7.83468 168.217 7.94868 168.013 7.94868 167.749C7.94868 167.587 7.90068 167.455 7.80468 167.353C7.71468 167.251 7.56468 167.164 7.35468 167.092C7.15068 167.014 6.84468 166.927 6.43668 166.831C5.90268 166.711 5.53668 166.546 5.33868 166.336C5.14668 166.126 5.05068 165.859 5.05068 165.535C5.05068 165.313 5.11068 165.103 5.23068 164.905C5.35668 164.707 5.53968 164.545 5.77968 164.419C6.02568 164.293 6.31968 164.23 6.66168 164.23C7.02168 164.23 7.32468 164.293 7.57068 164.419C7.82268 164.539 8.00868 164.68 8.12868 164.842C8.25468 165.004 8.31768 165.136 8.31768 165.238C8.31768 165.292 8.29668 165.337 8.25468 165.373C8.21868 165.403 8.17368 165.418 8.11968 165.418H7.98468C7.90068 165.418 7.83468 165.379 7.78668 165.301C7.66668 165.121 7.52868 164.986 7.37268 164.896C7.22268 164.8 6.98568 164.752 6.66168 164.752C6.31368 164.752 6.04968 164.824 5.86968 164.968C5.68968 165.112 5.59968 165.301 5.59968 165.535C5.59968 165.679 5.63568 165.799 5.70768 165.895C5.77968 165.991 5.91468 166.081 6.11268 166.165C6.31068 166.243 6.59868 166.324 6.97668 166.408C7.53468 166.534 7.92768 166.702 8.15568 166.912C8.38368 167.122 8.49768 167.401 8.49768 167.749C8.49768 167.995 8.42868 168.22 8.29068 168.424C8.15268 168.628 7.94868 168.79 7.67868 168.91C7.40868 169.03 7.08468 169.09 6.70668 169.09ZM11.4244 169.09C10.8004 169.09 10.3174 168.91 9.97536 168.55C9.63336 168.184 9.45336 167.674 9.43536 167.02L9.42636 166.66L9.43536 166.3C9.45336 165.646 9.63336 165.139 9.97536 164.779C10.3174 164.413 10.8004 164.23 11.4244 164.23C11.8204 164.23 12.1564 164.302 12.4324 164.446C12.7144 164.584 12.9244 164.764 13.0624 164.986C13.2004 165.202 13.2754 165.427 13.2874 165.661C13.2934 165.715 13.2754 165.763 13.2334 165.805C13.1914 165.841 13.1434 165.859 13.0894 165.859H12.9634C12.9034 165.859 12.8584 165.847 12.8284 165.823C12.8044 165.793 12.7774 165.742 12.7474 165.67C12.6274 165.34 12.4594 165.106 12.2434 164.968C12.0274 164.824 11.7544 164.752 11.4244 164.752C10.9924 164.752 10.6474 164.884 10.3894 165.148C10.1374 165.406 10.0024 165.805 9.98436 166.345L9.97536 166.66L9.98436 166.975C10.0024 167.515 10.1374 167.917 10.3894 168.181C10.6474 168.439 10.9924 168.568 11.4244 168.568C11.7544 168.568 12.0274 168.499 12.2434 168.361C12.4594 168.217 12.6274 167.98 12.7474 167.65C12.7774 167.578 12.8044 167.53 12.8284 167.506C12.8584 167.476 12.9034 167.461 12.9634 167.461H13.0894C13.1434 167.461 13.1914 167.482 13.2334 167.524C13.2754 167.56 13.2934 167.605 13.2874 167.659C13.2754 167.893 13.2004 168.121 13.0624 168.343C12.9244 168.559 12.7144 168.739 12.4324 168.883C12.1564 169.021 11.8204 169.09 11.4244 169.09ZM15.7366 169.09C15.4486 169.09 15.1816 169.03 14.9356 168.91C14.6896 168.79 14.4916 168.628 14.3416 168.424C14.1976 168.22 14.1256 167.995 14.1256 167.749C14.1256 167.353 14.2846 167.029 14.6026 166.777C14.9266 166.525 15.3616 166.363 15.9076 166.291L17.3296 166.093V165.778C17.3296 165.448 17.2276 165.196 17.0236 165.022C16.8256 164.842 16.5196 164.752 16.1056 164.752C15.7996 164.752 15.5476 164.812 15.3496 164.932C15.1576 165.052 15.0346 165.196 14.9806 165.364C14.9566 165.436 14.9266 165.487 14.8906 165.517C14.8606 165.541 14.8186 165.553 14.7646 165.553H14.6386C14.5846 165.553 14.5366 165.535 14.4946 165.499C14.4586 165.457 14.4406 165.409 14.4406 165.355C14.4406 165.223 14.5006 165.07 14.6206 164.896C14.7406 164.716 14.9266 164.56 15.1786 164.428C15.4306 164.296 15.7396 164.23 16.1056 164.23C16.7476 164.23 17.2036 164.383 17.4736 164.689C17.7436 164.995 17.8786 165.367 17.8786 165.805V168.802C17.8786 168.862 17.8606 168.91 17.8246 168.946C17.7886 168.982 17.7406 169 17.6806 169H17.5276C17.4676 169 17.4196 168.982 17.3836 168.946C17.3476 168.91 17.3296 168.862 17.3296 168.802V168.379C17.1976 168.577 17.0026 168.745 16.7446 168.883C16.4926 169.021 16.1566 169.09 15.7366 169.09ZM15.8266 168.568C16.2646 168.568 16.6246 168.424 16.9066 168.136C17.1886 167.848 17.3296 167.434 17.3296 166.894V166.588L16.1686 166.75C15.6766 166.816 15.3046 166.93 15.0526 167.092C14.8006 167.254 14.6746 167.458 14.6746 167.704C14.6746 167.98 14.7886 168.193 15.0166 168.343C15.2506 168.493 15.5206 168.568 15.8266 168.568ZM19.5088 169C19.4488 169 19.4008 168.982 19.3648 168.946C19.3288 168.91 19.3108 168.862 19.3108 168.802V162.808C19.3108 162.748 19.3288 162.7 19.3648 162.664C19.4008 162.628 19.4488 162.61 19.5088 162.61H19.6618C19.7218 162.61 19.7698 162.628 19.8058 162.664C19.8418 162.7 19.8598 162.748 19.8598 162.808V168.802C19.8598 168.862 19.8418 168.91 19.8058 168.946C19.7698 168.982 19.7218 169 19.6618 169H19.5088ZM23.0602 169.09C22.4902 169.09 22.0312 168.904 21.6832 168.532C21.3352 168.154 21.1372 167.65 21.0892 167.02L21.0802 166.66L21.0892 166.3C21.1372 165.676 21.3322 165.175 21.6742 164.797C22.0222 164.419 22.4842 164.23 23.0602 164.23C23.6842 164.23 24.1702 164.437 24.5182 164.851C24.8722 165.265 25.0492 165.832 25.0492 166.552V166.687C25.0492 166.747 25.0282 166.795 24.9862 166.831C24.9502 166.867 24.9022 166.885 24.8422 166.885H21.6382V166.975C21.6502 167.257 21.7132 167.521 21.8272 167.767C21.9472 168.007 22.1122 168.202 22.3222 168.352C22.5322 168.496 22.7782 168.568 23.0602 168.568C23.3902 168.568 23.6572 168.505 23.8612 168.379C24.0712 168.247 24.2212 168.115 24.3112 167.983C24.3652 167.911 24.4042 167.866 24.4282 167.848C24.4582 167.83 24.5092 167.821 24.5812 167.821H24.7252C24.7792 167.821 24.8242 167.836 24.8602 167.866C24.8962 167.896 24.9142 167.935 24.9142 167.983C24.9142 168.109 24.8332 168.262 24.6712 168.442C24.5152 168.616 24.2962 168.769 24.0142 168.901C23.7322 169.027 23.4142 169.09 23.0602 169.09ZM24.5002 166.381V166.345C24.5002 165.883 24.3682 165.502 24.1042 165.202C23.8462 164.902 23.4982 164.752 23.0602 164.752C22.6222 164.752 22.2742 164.902 22.0162 165.202C21.7642 165.502 21.6382 165.883 21.6382 166.345V166.381H24.5002Z"
     fill="#FEC38F"
     id="path957" />
  <rect
     style="opacity:1;fill:#3a3345;fill-opacity:1;stroke:#211e29;stroke-width:0;stroke-miterlimit:4;stroke-dasharray:none;stroke-opacity:1"
     id="rect2045"
     width="26"
     height="158"
     x="2"
     y="195"
     ry="4.0512819" />
  <path
     d="m 13.1659,229 c -0.048,0 -0.09,-0.018 -0.126,-0.054 -0.036,-0.036 -0.054,-0.078 -0.054,-0.126 0,-0.06 0.024,-0.12 0.072,-0.18 l 1.584,-2.034 -1.503,-1.926 c -0.048,-0.06 -0.072,-0.12 -0.072,-0.18 0,-0.048 0.018,-0.09 0.054,-0.126 0.036,-0.036 0.078,-0.054 0.126,-0.054 h 0.189 c 0.054,0 0.093,0.012 0.117,0.036 0.03,0.018 0.066,0.051 0.108,0.099 l 1.35,1.737 1.35,-1.728 c 0.006,-0.006 0.021,-0.024 0.045,-0.054 0.024,-0.03 0.051,-0.051 0.081,-0.063 0.03,-0.018 0.063,-0.027 0.099,-0.027 h 0.18 c 0.048,0 0.09,0.018 0.126,0.054 0.036,0.036 0.054,0.078 0.054,0.126 0,0.06 -0.024,0.12 -0.072,0.18 l -1.521,1.953 1.584,2.007 c 0.048,0.06 0.072,0.12 0.072,0.18 0,0.048 -0.018,0.09 -0.054,0.126 -0.036,0.036 -0.078,0.054 -0.126,0.054 h -0.189 c -0.084,0 -0.159,-0.045 -0.225,-0.135 l -1.422,-1.818 -1.422,1.818 c -0.042,0.048 -0.078,0.084 -0.108,0.108 -0.024,0.018 -0.063,0.027 -0.117,0.027 z"
     fill="#FEC38F"
     id="path959"
     inkscape:connector-curvature="0" />
  <path
     d="m 14.126,270.71 c -0.048,0 -0.09,-0.018 -0.126,-0.054 -0.036,-0.036 -0.054,-0.078 -0.054,-0.126 0,-0.03 0.018,-0.09 0.054,-0.18 l 0.693,-1.62 -1.719,-4.05 c -0.036,-0.09 -0.054,-0.15 -0.054,-0.18 0,-0.048 0.018,-0.09 0.054,-0.126 0.036,-0.036 0.078,-0.054 0.126,-0.054 h 0.189 c 0.096,0 0.165,0.045 0.207,0.135 l 1.512,3.564 1.548,-3.564 c 0.048,-0.09 0.117,-0.135 0.207,-0.135 h 0.18 c 0.048,0 0.09,0.018 0.126,0.054 0.036,0.036 0.054,0.078 0.054,0.126 0,0.03 -0.018,0.09 -0.054,0.18 l -2.556,5.895 c -0.042,0.09 -0.111,0.135 -0.207,0.135 z"
     fill="#FEC38F"
     id="path961"
     inkscape:connector-curvature="0" />
  <path
     d="m 13.3699,309 c -0.06,0 -0.108,-0.018 -0.144,-0.054 -0.036,-0.036 -0.054,-0.084 -0.054,-0.144 v -0.153 c 0,-0.066 0.042,-0.159 0.126,-0.279 l 2.646,-3.528 h -2.484 c -0.06,0 -0.108,-0.018 -0.144,-0.054 -0.036,-0.036 -0.054,-0.084 -0.054,-0.144 v -0.126 c 0,-0.06 0.018,-0.108 0.054,-0.144 0.036,-0.036 0.084,-0.054 0.144,-0.054 h 3.024 c 0.06,0 0.108,0.018 0.144,0.054 0.036,0.036 0.054,0.084 0.054,0.144 v 0.153 c 0,0.066 -0.042,0.159 -0.126,0.279 l -2.628,3.528 h 2.736 c 0.06,0 0.108,0.018 0.144,0.054 0.036,0.036 0.054,0.084 0.054,0.144 v 0.126 c 0,0.06 -0.018,0.108 -0.054,0.144 -0.036,0.036 -0.084,0.054 -0.144,0.054 z"
     fill="#FEC38F"
     id="path963"
     inkscape:connector-curvature="0" />
  <path
     d="m 15.6868,349 c -0.444,0 -0.759,-0.132 -0.945,-0.396 -0.186,-0.27 -0.279,-0.639 -0.279,-1.107 v -2.655 h -0.702 c -0.06,0 -0.108,-0.018 -0.144,-0.054 -0.036,-0.036 -0.054,-0.084 -0.054,-0.144 v -0.126 c 0,-0.06 0.018,-0.108 0.054,-0.144 0.036,-0.036 0.084,-0.054 0.144,-0.054 h 0.702 v -1.512 c 0,-0.06 0.018,-0.108 0.054,-0.144 0.036,-0.036 0.084,-0.054 0.144,-0.054 h 0.153 c 0.06,0 0.108,0.018 0.144,0.054 0.036,0.036 0.054,0.084 0.054,0.144 v 1.512 h 1.116 c 0.06,0 0.108,0.018 0.144,0.054 0.036,0.036 0.054,0.084 0.054,0.144 v 0.126 c 0,0.06 -0.018,0.108 -0.054,0.144 -0.036,0.036 -0.084,0.054 -0.144,0.054 h -1.116 v 2.619 c 0,0.336 0.054,0.591 0.162,0.765 0.114,0.168 0.3,0.252 0.558,0.252 h 0.486 c 0.06,0 0.108,0.018 0.144,0.054 0.036,0.036 0.054,0.084 0.054,0.144 v 0.126 c 0,0.06 -0.018,0.108 -0.054,0.144 -0.036,0.036 -0.084,0.054 -0.144,0.054 z"
     fill="#FEC38F"
     id="path965"
     inkscape:connector-curvature="0" />
  <line
     y1="19.75"
     x2="30"
     y2="19.75"
     stroke="#FEC38F"
     stroke-width="0.5"
     id="line967" />
  <path
     inkscape:connector-curvature="0"
     id="path835"
     style="opacity:1;fill:#715f95;stroke:#211e29;stroke-width:0;stop-opacity:1"
     d="m 10,362.0002 v 5 a 5,5 0 0 0 2.492187,4.37109 5,5 0 0 0 5.03125,-0.01 A 5,5 0 0 0 20,366.98242 V 362 l -3,4 -2,-4 -2,4 z" />
</svg>
