<?xml version="1.0" encoding="UTF-8" standalone="no"?>
<svg
   xmlns:dc="http://purl.org/dc/elements/1.1/"
   xmlns:cc="http://creativecommons.org/ns#"
   xmlns:rdf="http://www.w3.org/1999/02/22-rdf-syntax-ns#"
   xmlns:svg="http://www.w3.org/2000/svg"
   xmlns="http://www.w3.org/2000/svg"
   xmlns:sodipodi="http://sodipodi.sourceforge.net/DTD/sodipodi-0.dtd"
   xmlns:inkscape="http://www.inkscape.org/namespaces/inkscape"
   inkscape:version="1.0alpha2 (4ce689b25c, 2019-06-24)"
   sodipodi:docname="languor.svg"
   id="svg4008"
   version="1.1"
   fill="none"
   viewBox="0 0 120 380"
   height="380"
   width="120">
  <metadata
     id="metadata4012">
    <rdf:RDF>
      <cc:Work
         rdf:about="">
        <dc:format>image/svg+xml</dc:format>
        <dc:type
           rdf:resource="http://purl.org/dc/dcmitype/StillImage" />
        <dc:title></dc:title>
      </cc:Work>
    </rdf:RDF>
  </metadata>
  <sodipodi:namedview
     showguides="false"
     inkscape:current-layer="g4001"
     inkscape:window-maximized="1"
     inkscape:window-y="-6"
     inkscape:window-x="-6"
     inkscape:cy="289.46544"
     inkscape:cx="61.987601"
     inkscape:zoom="3.0526316"
     showgrid="true"
     id="namedview4010"
     inkscape:window-height="1018"
     inkscape:window-width="1920"
     inkscape:pageshadow="2"
     inkscape:pageopacity="0"
     guidetolerance="10"
     gridtolerance="10"
     objecttolerance="10"
     borderopacity="1"
     inkscape:document-rotation="0"
     bordercolor="#666666"
     pagecolor="#565656">
    <inkscape:grid
       opacity="0.1254902"
       color="#6767ff"
       empopacity="0.25098039"
       empcolor="#8989ff"
       id="grid4575"
       type="xygrid" />
  </sodipodi:namedview>
  <g
     id="g4001"
     clip-path="url(#clip0)">
    <rect
       y="0"
       x="0"
       id="rect3981"
       fill="#211E29"
       height="380"
       width="120" />
    <path
       inkscape:connector-curvature="0"
       id="path3983"
       fill="#FEC38F"
       d="m 40.7168,14 c -0.08,0 -0.144,-0.024 -0.192,-0.072 -0.048,-0.048 -0.072,-0.112 -0.072,-0.192 V 5.744 c 0,-0.08 0.024,-0.144 0.072,-0.192 0.048,-0.048 0.112,-0.072 0.192,-0.072 h 0.204 c 0.08,0 0.144,0.024 0.192,0.072 0.048,0.048 0.072,0.112 0.072,0.192 v 7.992 c 0,0.08 -0.024,0.144 -0.072,0.192 -0.048,0.048 -0.112,0.072 -0.192,0.072 z m 4.0993,0.12 c -0.384,0 -0.74,-0.08 -1.068,-0.24 -0.328,-0.16 -0.592,-0.376 -0.792,-0.648 -0.192,-0.272 -0.288,-0.572 -0.288,-0.9 0,-0.528 0.212,-0.96 0.636,-1.296 0.432,-0.336 1.012,-0.552 1.74,-0.648 l 1.896,-0.264 v -0.42 c 0,-0.44 -0.136,-0.776 -0.408,-1.008 -0.264,-0.24 -0.672,-0.36 -1.224,-0.36 -0.408,0 -0.744,0.08 -1.008,0.24 -0.256,0.16 -0.42,0.352 -0.492,0.576 -0.032,0.096 -0.072,0.164 -0.12,0.204 -0.04,0.032 -0.096,0.048 -0.168,0.048 h -0.168 c -0.072,0 -0.136,-0.024 -0.192,-0.072 -0.048,-0.056 -0.072,-0.12 -0.072,-0.192 0,-0.176 0.08,-0.38 0.24,-0.612 0.16,-0.24 0.408,-0.448 0.744,-0.624 0.336,-0.176 0.748,-0.264 1.236,-0.264 0.856,0 1.464,0.204 1.824,0.612 0.36,0.408 0.54,0.904 0.54,1.488 v 3.996 c 0,0.08 -0.024,0.144 -0.072,0.192 -0.048,0.048 -0.112,0.072 -0.192,0.072 h -0.204 c -0.08,0 -0.144,-0.024 -0.192,-0.072 -0.048,-0.048 -0.072,-0.112 -0.072,-0.192 v -0.564 c -0.176,0.264 -0.436,0.488 -0.78,0.672 -0.336,0.184 -0.784,0.276 -1.344,0.276 z m 0.12,-0.696 c 0.584,0 1.064,-0.192 1.44,-0.576 0.376,-0.384 0.564,-0.936 0.564,-1.656 V 10.784 L 45.3921,11 c -0.656,0.088 -1.152,0.24 -1.488,0.456 -0.336,0.216 -0.504,0.488 -0.504,0.816 0,0.368 0.152,0.652 0.456,0.852 0.312,0.2 0.672,0.3 1.08,0.3 z M 49.8337,14 c -0.08,0 -0.144,-0.024 -0.192,-0.072 -0.048,-0.048 -0.072,-0.112 -0.072,-0.192 V 8.024 c 0,-0.08 0.024,-0.144 0.072,-0.192 0.048,-0.048 0.112,-0.072 0.192,-0.072 h 0.204 c 0.08,0 0.144,0.024 0.192,0.072 0.048,0.048 0.072,0.112 0.072,0.192 v 0.564 c 0.24,-0.312 0.512,-0.548 0.816,-0.708 0.312,-0.16 0.712,-0.24 1.2,-0.24 0.784,0 1.388,0.252 1.812,0.756 0.424,0.496 0.636,1.14 0.636,1.932 v 3.408 c 0,0.08 -0.024,0.144 -0.072,0.192 -0.048,0.048 -0.112,0.072 -0.192,0.072 h -0.204 c -0.08,0 -0.144,-0.024 -0.192,-0.072 -0.048,-0.048 -0.072,-0.112 -0.072,-0.192 v -3.348 c 0,-0.648 -0.16,-1.152 -0.48,-1.512 -0.312,-0.36 -0.764,-0.54 -1.356,-0.54 -0.576,0 -1.036,0.184 -1.38,0.552 -0.344,0.36 -0.516,0.86 -0.516,1.5 v 3.348 c 0,0.08 -0.024,0.144 -0.072,0.192 -0.048,0.048 -0.112,0.072 -0.192,0.072 z m 9.1421,2.64 c -0.624,0 -1.124,-0.108 -1.5,-0.324 -0.376,-0.216 -0.64,-0.464 -0.792,-0.744 -0.144,-0.272 -0.216,-0.512 -0.216,-0.72 0,-0.072 0.024,-0.132 0.072,-0.18 0.056,-0.048 0.12,-0.072 0.192,-0.072 h 0.168 c 0.072,0 0.128,0.016 0.168,0.048 0.048,0.04 0.088,0.108 0.12,0.204 0.248,0.728 0.824,1.092 1.728,1.092 0.688,0 1.196,-0.144 1.524,-0.432 0.328,-0.28 0.492,-0.784 0.492,-1.512 v -0.828 c -0.464,0.632 -1.136,0.948 -2.016,0.948 -0.864,0 -1.504,-0.28 -1.92,-0.84 -0.408,-0.568 -0.624,-1.256 -0.648,-2.064 l -0.012,-0.336 0.012,-0.336 c 0.024,-0.808 0.24,-1.492 0.648,-2.052 0.416,-0.568 1.056,-0.852 1.92,-0.852 0.872,0 1.544,0.316 2.016,0.948 V 8.036 c 0,-0.08 0.024,-0.144 0.072,-0.192 0.048,-0.056 0.112,-0.084 0.192,-0.084 h 0.192 c 0.08,0 0.144,0.028 0.192,0.084 0.056,0.048 0.084,0.112 0.084,0.192 v 5.844 c 0,0.856 -0.2,1.528 -0.6,2.016 -0.4,0.496 -1.096,0.744 -2.088,0.744 z m 0.012,-3.216 c 0.632,0 1.108,-0.208 1.428,-0.624 0.32,-0.424 0.492,-0.92 0.516,-1.488 0.008,-0.08 0.012,-0.224 0.012,-0.432 0,-0.208 -0.004,-0.352 -0.012,-0.432 -0.024,-0.568 -0.196,-1.06 -0.516,-1.476 -0.32,-0.424 -0.796,-0.636 -1.428,-0.636 -0.648,0 -1.124,0.208 -1.428,0.624 -0.296,0.408 -0.456,0.936 -0.48,1.584 l -0.012,0.336 0.012,0.336 c 0.024,0.648 0.184,1.18 0.48,1.596 0.304,0.408 0.78,0.612 1.428,0.612 z m 6.9726,0.696 c -0.784,0 -1.38,-0.248 -1.788,-0.744 -0.408,-0.496 -0.612,-1.144 -0.612,-1.944 V 8.024 c 0,-0.08 0.024,-0.144 0.072,-0.192 0.048,-0.048 0.112,-0.072 0.192,-0.072 h 0.204 c 0.08,0 0.144,0.024 0.192,0.072 0.048,0.048 0.072,0.112 0.072,0.192 v 3.348 c 0,1.368 0.596,2.052 1.788,2.052 0.576,0 1.032,-0.18 1.368,-0.54 0.344,-0.368 0.516,-0.872 0.516,-1.512 V 8.024 c 0,-0.08 0.024,-0.144 0.072,-0.192 0.048,-0.048 0.112,-0.072 0.192,-0.072 h 0.204 c 0.08,0 0.144,0.024 0.192,0.072 0.048,0.048 0.072,0.112 0.072,0.192 v 5.712 c 0,0.08 -0.024,0.144 -0.072,0.192 -0.048,0.048 -0.112,0.072 -0.192,0.072 h -0.204 c -0.08,0 -0.144,-0.024 -0.192,-0.072 -0.048,-0.048 -0.072,-0.112 -0.072,-0.192 v -0.564 c -0.24,0.312 -0.516,0.548 -0.828,0.708 -0.304,0.16 -0.696,0.24 -1.176,0.24 z m 7.0556,0 c -0.832,0 -1.48,-0.252 -1.944,-0.756 -0.456,-0.512 -0.696,-1.172 -0.72,-1.98 L 70.34,10.88 70.352,10.376 c 0.024,-0.808 0.264,-1.464 0.72,-1.968 0.464,-0.512 1.112,-0.768 1.944,-0.768 0.832,0 1.476,0.256 1.932,0.768 0.464,0.504 0.708,1.16 0.732,1.968 0.008,0.08 0.012,0.248 0.012,0.504 0,0.256 -0.004,0.424 -0.012,0.504 -0.024,0.808 -0.268,1.468 -0.732,1.98 -0.456,0.504 -1.1,0.756 -1.932,0.756 z m 0,-0.696 c 0.568,0 1.024,-0.18 1.368,-0.54 0.352,-0.368 0.54,-0.888 0.564,-1.56 0.008,-0.08 0.012,-0.228 0.012,-0.444 0,-0.216 -0.004,-0.364 -0.012,-0.444 C 74.924,9.764 74.736,9.248 74.384,8.888 74.04,8.52 73.584,8.336 73.016,8.336 c -0.568,0 -1.028,0.184 -1.38,0.552 -0.344,0.36 -0.528,0.876 -0.552,1.548 l -0.012,0.444 0.012,0.444 c 0.024,0.672 0.208,1.192 0.552,1.56 0.352,0.36 0.812,0.54 1.38,0.54 z M 77.5954,14 c -0.08,0 -0.144,-0.024 -0.192,-0.072 -0.048,-0.048 -0.072,-0.112 -0.072,-0.192 v -5.7 c 0,-0.08 0.024,-0.144 0.072,-0.192 0.048,-0.056 0.112,-0.084 0.192,-0.084 h 0.192 c 0.08,0 0.144,0.028 0.192,0.084 0.056,0.048 0.084,0.112 0.084,0.192 v 0.552 c 0.288,-0.552 0.832,-0.828 1.632,-0.828 h 0.444 c 0.08,0 0.144,0.024 0.192,0.072 0.048,0.048 0.072,0.112 0.072,0.192 v 0.168 c 0,0.08 -0.024,0.144 -0.072,0.192 -0.048,0.048 -0.112,0.072 -0.192,0.072 h -0.516 c -0.48,0 -0.86,0.14 -1.14,0.42 -0.28,0.28 -0.42,0.66 -0.42,1.14 v 3.72 c 0,0.08 -0.028,0.144 -0.084,0.192 -0.048,0.048 -0.112,0.072 -0.192,0.072 z" />
    <path
       inkscape:connector-curvature="0"
       id="path3985"
       fill="#FEC38F"
       d="m 12.361,94.09 c -0.39,0 -0.72,-0.066 -0.99,-0.198 -0.264,-0.132 -0.465,-0.282 -0.603,-0.45 -0.132,-0.168 -0.198,-0.303 -0.198,-0.405 0,-0.054 0.021,-0.096 0.063,-0.126 0.042,-0.036 0.087,-0.054 0.135,-0.054 h 0.135 c 0.042,0 0.075,0.009 0.099,0.027 0.03,0.012 0.063,0.042 0.099,0.09 0.132,0.186 0.291,0.333 0.477,0.441 0.192,0.102 0.453,0.153 0.783,0.153 0.372,0 0.672,-0.069 0.9,-0.207 0.228,-0.144 0.342,-0.348 0.342,-0.612 0,-0.162 -0.048,-0.294 -0.144,-0.396 -0.09,-0.102 -0.24,-0.189 -0.45,-0.261 -0.204,-0.078 -0.51,-0.165 -0.918,-0.261 -0.534,-0.12 -0.9,-0.285 -1.098,-0.495 -0.192,-0.21 -0.288,-0.477 -0.288,-0.801 0,-0.222 0.06,-0.432 0.18,-0.63 0.126,-0.198 0.309,-0.36 0.549,-0.486 0.246,-0.126 0.54,-0.189 0.882,-0.189 0.36,0 0.663,0.063 0.909,0.189 0.252,0.12 0.438,0.261 0.558,0.423 0.126,0.162 0.189,0.294 0.189,0.396 0,0.054 -0.021,0.099 -0.063,0.135 -0.036,0.03 -0.081,0.045 -0.135,0.045 h -0.135 c -0.084,0 -0.15,-0.039 -0.198,-0.117 -0.12,-0.18 -0.258,-0.315 -0.414,-0.405 -0.15,-0.096 -0.387,-0.144 -0.711,-0.144 -0.348,0 -0.612,0.072 -0.792,0.216 -0.18,0.144 -0.27,0.333 -0.27,0.567 0,0.144 0.036,0.264 0.108,0.36 0.072,0.096 0.207,0.186 0.405,0.27 0.198,0.078 0.486,0.159 0.864,0.243 0.558,0.126 0.951,0.294 1.179,0.504 0.228,0.21 0.342,0.489 0.342,0.837 0,0.246 -0.069,0.471 -0.207,0.675 -0.138,0.204 -0.342,0.366 -0.612,0.486 -0.27,0.12 -0.594,0.18 -0.972,0.18 z m 3.1517,1.62 c -0.06,0 -0.108,-0.018 -0.144,-0.054 -0.036,-0.036 -0.054,-0.084 -0.054,-0.144 v -5.994 c 0,-0.06 0.018,-0.108 0.054,-0.144 0.036,-0.036 0.084,-0.054 0.144,-0.054 h 0.153 c 0.06,0 0.108,0.018 0.144,0.054 0.036,0.036 0.054,0.084 0.054,0.144 v 0.423 c 0.348,-0.474 0.852,-0.711 1.512,-0.711 0.648,0 1.125,0.207 1.431,0.621 0.312,0.408 0.477,0.912 0.495,1.512 0.006,0.06 0.009,0.159 0.009,0.297 0,0.138 -0.003,0.237 -0.009,0.297 -0.018,0.6 -0.183,1.107 -0.495,1.521 -0.306,0.408 -0.783,0.612 -1.431,0.612 -0.654,0 -1.158,-0.237 -1.512,-0.711 v 2.133 c 0,0.06 -0.018,0.108 -0.054,0.144 -0.036,0.036 -0.084,0.054 -0.144,0.054 z m 1.809,-2.142 c 0.486,0 0.84,-0.153 1.062,-0.459 0.228,-0.312 0.351,-0.711 0.369,-1.197 0.006,-0.06 0.009,-0.144 0.009,-0.252 0,-0.558 -0.108,-1.014 -0.324,-1.368 -0.216,-0.36 -0.588,-0.54 -1.116,-0.54 -0.474,0 -0.831,0.159 -1.071,0.477 -0.24,0.312 -0.369,0.681 -0.387,1.107 l -0.009,0.351 0.009,0.351 c 0.006,0.258 0.063,0.504 0.171,0.738 0.108,0.228 0.27,0.417 0.486,0.567 0.216,0.15 0.483,0.225 0.801,0.225 z m 4.9505,0.522 c -0.57,0 -1.029,-0.186 -1.377,-0.558 -0.348,-0.378 -0.546,-0.882 -0.594,-1.512 l -0.009,-0.36 0.009,-0.36 c 0.048,-0.624 0.243,-1.125 0.585,-1.503 0.348,-0.378 0.81,-0.567 1.386,-0.567 0.624,0 1.11,0.207 1.458,0.621 0.354,0.414 0.531,0.981 0.531,1.701 v 0.135 c 0,0.06 -0.021,0.108 -0.063,0.144 -0.036,0.036 -0.084,0.054 -0.144,0.054 h -3.204 v 0.09 c 0.012,0.282 0.075,0.546 0.189,0.792 0.12,0.24 0.285,0.435 0.495,0.585 0.21,0.144 0.456,0.216 0.738,0.216 0.33,0 0.597,-0.063 0.801,-0.189 0.21,-0.132 0.36,-0.264 0.45,-0.396 0.054,-0.072 0.093,-0.117 0.117,-0.135 0.03,-0.018 0.081,-0.027 0.153,-0.027 h 0.144 c 0.054,0 0.099,0.015 0.135,0.045 0.036,0.03 0.054,0.069 0.054,0.117 0,0.126 -0.081,0.279 -0.243,0.459 -0.156,0.174 -0.375,0.327 -0.657,0.459 -0.282,0.126 -0.6,0.189 -0.954,0.189 z m 1.44,-2.709 v -0.036 c 0,-0.462 -0.132,-0.843 -0.396,-1.143 -0.258,-0.3 -0.606,-0.45 -1.044,-0.45 -0.438,0 -0.786,0.15 -1.044,0.45 -0.252,0.3 -0.378,0.681 -0.378,1.143 v 0.036 z m 3.473,2.709 c -0.57,0 -1.029,-0.186 -1.377,-0.558 -0.348,-0.378 -0.546,-0.882 -0.594,-1.512 l -0.009,-0.36 0.009,-0.36 c 0.048,-0.624 0.243,-1.125 0.585,-1.503 0.348,-0.378 0.81,-0.567 1.386,-0.567 0.624,0 1.11,0.207 1.458,0.621 0.354,0.414 0.531,0.981 0.531,1.701 v 0.135 c 0,0.06 -0.021,0.108 -0.063,0.144 -0.036,0.036 -0.084,0.054 -0.144,0.054 h -3.204 v 0.09 c 0.012,0.282 0.075,0.546 0.189,0.792 0.12,0.24 0.285,0.435 0.495,0.585 0.21,0.144 0.456,0.216 0.738,0.216 0.33,0 0.597,-0.063 0.801,-0.189 0.21,-0.132 0.36,-0.264 0.45,-0.396 0.054,-0.072 0.093,-0.117 0.117,-0.135 0.03,-0.018 0.081,-0.027 0.153,-0.027 h 0.144 c 0.054,0 0.099,0.015 0.135,0.045 0.036,0.03 0.054,0.069 0.054,0.117 0,0.126 -0.081,0.279 -0.243,0.459 -0.156,0.174 -0.375,0.327 -0.657,0.459 -0.282,0.126 -0.6,0.189 -0.954,0.189 z m 1.44,-2.709 v -0.036 c 0,-0.462 -0.132,-0.843 -0.396,-1.143 -0.258,-0.3 -0.606,-0.45 -1.044,-0.45 -0.438,0 -0.786,0.15 -1.044,0.45 -0.252,0.3 -0.378,0.681 -0.378,1.143 v 0.036 z m 3.4281,2.709 c -0.648,0 -1.128,-0.21 -1.44,-0.63 -0.306,-0.426 -0.468,-0.942 -0.486,-1.548 l -0.009,-0.252 0.009,-0.252 c 0.018,-0.606 0.18,-1.119 0.486,-1.539 0.312,-0.426 0.792,-0.639 1.44,-0.639 0.654,0 1.158,0.237 1.512,0.711 v -2.133 c 0,-0.06 0.018,-0.108 0.054,-0.144 0.036,-0.036 0.084,-0.054 0.144,-0.054 h 0.153 c 0.06,0 0.108,0.018 0.144,0.054 0.036,0.036 0.054,0.084 0.054,0.144 v 5.994 c 0,0.06 -0.018,0.108 -0.054,0.144 -0.036,0.036 -0.084,0.054 -0.144,0.054 h -0.153 c -0.06,0 -0.108,-0.018 -0.144,-0.054 -0.036,-0.036 -0.054,-0.084 -0.054,-0.144 v -0.423 c -0.348,0.474 -0.852,0.711 -1.512,0.711 z m 0.054,-0.522 c 0.474,0 0.831,-0.156 1.071,-0.468 0.24,-0.318 0.369,-0.69 0.387,-1.116 0.006,-0.06 0.009,-0.177 0.009,-0.351 0,-0.174 -0.003,-0.291 -0.009,-0.351 -0.006,-0.258 -0.063,-0.501 -0.171,-0.729 -0.108,-0.234 -0.27,-0.426 -0.486,-0.576 -0.216,-0.15 -0.483,-0.225 -0.801,-0.225 -0.486,0 -0.843,0.156 -1.071,0.468 -0.222,0.306 -0.342,0.702 -0.36,1.188 l -0.009,0.252 c 0,0.558 0.108,1.017 0.324,1.377 0.216,0.354 0.588,0.531 1.116,0.531 z" />
    <path
       inkscape:connector-curvature="0"
       id="path3987"
       fill="#FEC38F"
       d="m 49.8566,94.09 c -0.39,0 -0.72,-0.066 -0.99,-0.198 -0.264,-0.132 -0.465,-0.282 -0.603,-0.45 -0.132,-0.168 -0.198,-0.303 -0.198,-0.405 0,-0.054 0.021,-0.096 0.063,-0.126 0.042,-0.036 0.087,-0.054 0.135,-0.054 h 0.135 c 0.042,0 0.075,0.009 0.099,0.027 0.03,0.012 0.063,0.042 0.099,0.09 0.132,0.186 0.291,0.333 0.477,0.441 0.192,0.102 0.453,0.153 0.783,0.153 0.372,0 0.672,-0.069 0.9,-0.207 0.228,-0.144 0.342,-0.348 0.342,-0.612 0,-0.162 -0.048,-0.294 -0.144,-0.396 -0.09,-0.102 -0.24,-0.189 -0.45,-0.261 -0.204,-0.078 -0.51,-0.165 -0.918,-0.261 -0.534,-0.12 -0.9,-0.285 -1.098,-0.495 -0.192,-0.21 -0.288,-0.477 -0.288,-0.801 0,-0.222 0.06,-0.432 0.18,-0.63 0.126,-0.198 0.309,-0.36 0.549,-0.486 0.246,-0.126 0.54,-0.189 0.882,-0.189 0.36,0 0.663,0.063 0.909,0.189 0.252,0.12 0.438,0.261 0.558,0.423 0.126,0.162 0.189,0.294 0.189,0.396 0,0.054 -0.021,0.099 -0.063,0.135 -0.036,0.03 -0.081,0.045 -0.135,0.045 h -0.135 c -0.084,0 -0.15,-0.039 -0.198,-0.117 -0.12,-0.18 -0.258,-0.315 -0.414,-0.405 -0.15,-0.096 -0.387,-0.144 -0.711,-0.144 -0.348,0 -0.612,0.072 -0.792,0.216 -0.18,0.144 -0.27,0.333 -0.27,0.567 0,0.144 0.036,0.264 0.108,0.36 0.072,0.096 0.207,0.186 0.405,0.27 0.198,0.078 0.486,0.159 0.864,0.243 0.558,0.126 0.951,0.294 1.179,0.504 0.228,0.21 0.342,0.489 0.342,0.837 0,0.246 -0.069,0.471 -0.207,0.675 -0.138,0.204 -0.342,0.366 -0.612,0.486 -0.27,0.12 -0.594,0.18 -0.972,0.18 z M 53.0083,94 c -0.06,0 -0.108,-0.018 -0.144,-0.054 -0.036,-0.036 -0.054,-0.084 -0.054,-0.144 v -5.994 c 0,-0.06 0.018,-0.108 0.054,-0.144 0.036,-0.036 0.084,-0.054 0.144,-0.054 h 0.153 c 0.06,0 0.108,0.018 0.144,0.054 0.036,0.036 0.054,0.084 0.054,0.144 v 2.133 c 0.18,-0.234 0.384,-0.411 0.612,-0.531 0.234,-0.12 0.534,-0.18 0.9,-0.18 0.588,0 1.041,0.189 1.359,0.567 0.318,0.372 0.477,0.855 0.477,1.449 v 2.556 c 0,0.06 -0.018,0.108 -0.054,0.144 -0.036,0.036 -0.084,0.054 -0.144,0.054 h -0.153 c -0.06,0 -0.108,-0.018 -0.144,-0.054 -0.036,-0.036 -0.054,-0.084 -0.054,-0.144 v -2.511 c 0,-0.486 -0.12,-0.864 -0.36,-1.134 -0.234,-0.27 -0.573,-0.405 -1.017,-0.405 -0.432,0 -0.777,0.138 -1.035,0.414 -0.258,0.27 -0.387,0.645 -0.387,1.125 v 2.511 c 0,0.06 -0.018,0.108 -0.054,0.144 -0.036,0.036 -0.084,0.054 -0.144,0.054 z m 6.3703,0.09 c -0.288,0 -0.555,-0.06 -0.801,-0.18 -0.246,-0.12 -0.444,-0.282 -0.594,-0.486 -0.144,-0.204 -0.216,-0.429 -0.216,-0.675 0,-0.396 0.159,-0.72 0.477,-0.972 0.324,-0.252 0.759,-0.414 1.305,-0.486 l 1.422,-0.198 v -0.315 c 0,-0.33 -0.102,-0.582 -0.306,-0.756 -0.198,-0.18 -0.504,-0.27 -0.918,-0.27 -0.306,0 -0.558,0.06 -0.756,0.18 -0.192,0.12 -0.315,0.264 -0.369,0.432 -0.024,0.072 -0.054,0.123 -0.09,0.153 -0.03,0.024 -0.072,0.036 -0.126,0.036 h -0.126 c -0.054,0 -0.102,-0.018 -0.144,-0.054 -0.036,-0.042 -0.054,-0.09 -0.054,-0.144 0,-0.132 0.06,-0.285 0.18,-0.459 0.12,-0.18 0.306,-0.336 0.558,-0.468 0.252,-0.132 0.561,-0.198 0.927,-0.198 0.642,0 1.098,0.153 1.368,0.459 0.27,0.306 0.405,0.678 0.405,1.116 v 2.997 c 0,0.06 -0.018,0.108 -0.054,0.144 -0.036,0.036 -0.084,0.054 -0.144,0.054 h -0.153 c -0.06,0 -0.108,-0.018 -0.144,-0.054 -0.036,-0.036 -0.054,-0.084 -0.054,-0.144 v -0.423 c -0.132,0.198 -0.327,0.366 -0.585,0.504 -0.252,0.138 -0.588,0.207 -1.008,0.207 z m 0.09,-0.522 c 0.438,0 0.798,-0.144 1.08,-0.432 0.282,-0.288 0.423,-0.702 0.423,-1.242 v -0.306 l -1.161,0.162 c -0.492,0.066 -0.864,0.18 -1.116,0.342 -0.252,0.162 -0.378,0.366 -0.378,0.612 0,0.276 0.114,0.489 0.342,0.639 0.234,0.15 0.504,0.225 0.81,0.225 z m 3.6822,2.142 c -0.06,0 -0.108,-0.018 -0.144,-0.054 -0.036,-0.036 -0.054,-0.084 -0.054,-0.144 v -5.994 c 0,-0.06 0.018,-0.108 0.054,-0.144 0.036,-0.036 0.084,-0.054 0.144,-0.054 h 0.153 c 0.06,0 0.108,0.018 0.144,0.054 0.036,0.036 0.054,0.084 0.054,0.144 v 0.423 c 0.348,-0.474 0.852,-0.711 1.512,-0.711 0.648,0 1.125,0.207 1.431,0.621 0.312,0.408 0.477,0.912 0.495,1.512 0.006,0.06 0.009,0.159 0.009,0.297 0,0.138 -0.003,0.237 -0.009,0.297 -0.018,0.6 -0.183,1.107 -0.495,1.521 -0.306,0.408 -0.783,0.612 -1.431,0.612 -0.654,0 -1.158,-0.237 -1.512,-0.711 v 2.133 c 0,0.06 -0.018,0.108 -0.054,0.144 -0.036,0.036 -0.084,0.054 -0.144,0.054 z m 1.809,-2.142 c 0.486,0 0.84,-0.153 1.062,-0.459 0.228,-0.312 0.351,-0.711 0.369,-1.197 0.006,-0.06 0.009,-0.144 0.009,-0.252 0,-0.558 -0.108,-1.014 -0.324,-1.368 -0.216,-0.36 -0.588,-0.54 -1.116,-0.54 -0.474,0 -0.831,0.159 -1.071,0.477 -0.24,0.312 -0.369,0.681 -0.387,1.107 l -0.009,0.351 0.009,0.351 c 0.006,0.258 0.063,0.504 0.171,0.738 0.108,0.228 0.27,0.417 0.486,0.567 0.216,0.15 0.483,0.225 0.801,0.225 z m 4.9505,0.522 c -0.57,0 -1.029,-0.186 -1.377,-0.558 -0.348,-0.378 -0.546,-0.882 -0.594,-1.512 l -0.009,-0.36 0.009,-0.36 c 0.048,-0.624 0.243,-1.125 0.585,-1.503 0.348,-0.378 0.81,-0.567 1.386,-0.567 0.624,0 1.11,0.207 1.458,0.621 0.354,0.414 0.531,0.981 0.531,1.701 v 0.135 c 0,0.06 -0.021,0.108 -0.063,0.144 -0.036,0.036 -0.084,0.054 -0.144,0.054 h -3.204 v 0.09 c 0.012,0.282 0.075,0.546 0.189,0.792 0.12,0.24 0.285,0.435 0.495,0.585 0.21,0.144 0.456,0.216 0.738,0.216 0.33,0 0.597,-0.063 0.801,-0.189 0.21,-0.132 0.36,-0.264 0.45,-0.396 0.054,-0.072 0.093,-0.117 0.117,-0.135 0.03,-0.018 0.081,-0.027 0.153,-0.027 h 0.144 c 0.054,0 0.099,0.015 0.135,0.045 0.036,0.03 0.054,0.069 0.054,0.117 0,0.126 -0.081,0.279 -0.243,0.459 -0.156,0.174 -0.375,0.327 -0.657,0.459 -0.282,0.126 -0.6,0.189 -0.954,0.189 z m 1.44,-2.709 v -0.036 c 0,-0.462 -0.132,-0.843 -0.396,-1.143 -0.258,-0.3 -0.606,-0.45 -1.044,-0.45 -0.438,0 -0.786,0.15 -1.044,0.45 -0.252,0.3 -0.378,0.681 -0.378,1.143 v 0.036 z" />
    <path
       inkscape:connector-curvature="0"
       id="path3989"
       fill="#FEC38F"
       d="m 89.2067,94.09 c -0.39,0 -0.72,-0.066 -0.99,-0.198 -0.264,-0.132 -0.465,-0.282 -0.603,-0.45 -0.132,-0.168 -0.198,-0.303 -0.198,-0.405 0,-0.054 0.021,-0.096 0.063,-0.126 0.042,-0.036 0.087,-0.054 0.135,-0.054 h 0.135 c 0.042,0 0.075,0.009 0.099,0.027 0.03,0.012 0.063,0.042 0.099,0.09 0.132,0.186 0.291,0.333 0.477,0.441 0.192,0.102 0.453,0.153 0.783,0.153 0.372,0 0.672,-0.069 0.9,-0.207 0.228,-0.144 0.342,-0.348 0.342,-0.612 0,-0.162 -0.048,-0.294 -0.144,-0.396 -0.09,-0.102 -0.24,-0.189 -0.45,-0.261 -0.204,-0.078 -0.51,-0.165 -0.918,-0.261 -0.534,-0.12 -0.9,-0.285 -1.098,-0.495 -0.192,-0.21 -0.288,-0.477 -0.288,-0.801 0,-0.222 0.06,-0.432 0.18,-0.63 0.126,-0.198 0.309,-0.36 0.549,-0.486 0.246,-0.126 0.54,-0.189 0.882,-0.189 0.36,0 0.663,0.063 0.909,0.189 0.252,0.12 0.438,0.261 0.558,0.423 0.126,0.162 0.189,0.294 0.189,0.396 0,0.054 -0.021,0.099 -0.063,0.135 -0.036,0.03 -0.081,0.045 -0.135,0.045 h -0.135 c -0.084,0 -0.15,-0.039 -0.198,-0.117 -0.12,-0.18 -0.258,-0.315 -0.414,-0.405 -0.15,-0.096 -0.387,-0.144 -0.711,-0.144 -0.348,0 -0.612,0.072 -0.792,0.216 -0.18,0.144 -0.27,0.333 -0.27,0.567 0,0.144 0.036,0.264 0.108,0.36 0.072,0.096 0.207,0.186 0.405,0.27 0.198,0.078 0.486,0.159 0.864,0.243 0.558,0.126 0.951,0.294 1.179,0.504 0.228,0.21 0.342,0.489 0.342,0.837 0,0.246 -0.069,0.471 -0.207,0.675 -0.138,0.204 -0.342,0.366 -0.612,0.486 -0.27,0.12 -0.594,0.18 -0.972,0.18 z m 4.7177,0 c -0.624,0 -1.107,-0.18 -1.449,-0.54 -0.342,-0.366 -0.522,-0.876 -0.54,-1.53 l -0.009,-0.36 0.009,-0.36 c 0.018,-0.654 0.198,-1.161 0.54,-1.521 0.342,-0.366 0.825,-0.549 1.449,-0.549 0.396,0 0.732,0.072 1.008,0.216 0.282,0.138 0.492,0.318 0.63,0.54 0.138,0.216 0.213,0.441 0.225,0.675 0.006,0.054 -0.012,0.102 -0.054,0.144 -0.042,0.036 -0.09,0.054 -0.144,0.054 h -0.126 c -0.06,0 -0.105,-0.012 -0.135,-0.036 -0.024,-0.03 -0.051,-0.081 -0.081,-0.153 -0.12,-0.33 -0.288,-0.564 -0.504,-0.702 -0.216,-0.144 -0.489,-0.216 -0.819,-0.216 -0.432,0 -0.777,0.132 -1.035,0.396 -0.252,0.258 -0.387,0.657 -0.405,1.197 l -0.009,0.315 0.009,0.315 c 0.018,0.54 0.153,0.942 0.405,1.206 0.258,0.258 0.603,0.387 1.035,0.387 0.33,0 0.603,-0.069 0.819,-0.207 0.216,-0.144 0.384,-0.381 0.504,-0.711 0.03,-0.072 0.057,-0.12 0.081,-0.144 0.03,-0.03 0.075,-0.045 0.135,-0.045 h 0.126 c 0.054,0 0.102,0.021 0.144,0.063 0.042,0.036 0.06,0.081 0.054,0.135 -0.012,0.234 -0.087,0.462 -0.225,0.684 -0.138,0.216 -0.348,0.396 -0.63,0.54 -0.276,0.138 -0.612,0.207 -1.008,0.207 z m 4.3122,0 c -0.288,0 -0.555,-0.06 -0.801,-0.18 -0.246,-0.12 -0.444,-0.282 -0.594,-0.486 -0.144,-0.204 -0.216,-0.429 -0.216,-0.675 0,-0.396 0.159,-0.72 0.477,-0.972 0.324,-0.252 0.759,-0.414 1.305,-0.486 l 1.422,-0.198 v -0.315 c 0,-0.33 -0.102,-0.582 -0.306,-0.756 -0.198,-0.18 -0.504,-0.27 -0.918,-0.27 -0.306,0 -0.558,0.06 -0.756,0.18 -0.192,0.12 -0.315,0.264 -0.369,0.432 -0.024,0.072 -0.054,0.123 -0.09,0.153 -0.03,0.024 -0.072,0.036 -0.126,0.036 h -0.126 c -0.054,0 -0.102,-0.018 -0.144,-0.054 -0.036,-0.042 -0.054,-0.09 -0.054,-0.144 0,-0.132 0.06,-0.285 0.18,-0.459 0.12,-0.18 0.306,-0.336 0.558,-0.468 0.252,-0.132 0.561,-0.198 0.927,-0.198 0.642,0 1.098,0.153 1.368,0.459 0.2704,0.306 0.4054,0.678 0.4054,1.116 v 2.997 c 0,0.06 -0.018,0.108 -0.054,0.144 -0.036,0.036 -0.084,0.054 -0.144,0.054 h -0.153 c -0.0604,0 -0.1084,-0.018 -0.1444,-0.054 -0.036,-0.036 -0.054,-0.084 -0.054,-0.144 v -0.423 c -0.132,0.198 -0.327,0.366 -0.585,0.504 -0.252,0.138 -0.588,0.207 -1.008,0.207 z m 0.09,-0.522 c 0.438,0 0.798,-0.144 1.08,-0.432 0.282,-0.288 0.423,-0.702 0.423,-1.242 v -0.306 l -1.161,0.162 c -0.492,0.066 -0.864,0.18 -1.116,0.342 -0.252,0.162 -0.378,0.366 -0.378,0.612 0,0.276 0.114,0.489 0.342,0.639 0.234,0.15 0.504,0.225 0.81,0.225 z M 102.009,94 c -0.06,0 -0.108,-0.018 -0.144,-0.054 -0.036,-0.036 -0.054,-0.084 -0.054,-0.144 v -5.994 c 0,-0.06 0.018,-0.108 0.054,-0.144 0.036,-0.036 0.084,-0.054 0.144,-0.054 h 0.153 c 0.06,0 0.108,0.018 0.144,0.054 0.036,0.036 0.054,0.084 0.054,0.144 v 5.994 c 0,0.06 -0.018,0.108 -0.054,0.144 C 102.27,93.982 102.222,94 102.162,94 Z m 3.551,0.09 c -0.57,0 -1.029,-0.186 -1.377,-0.558 -0.348,-0.378 -0.546,-0.882 -0.594,-1.512 l -0.009,-0.36 0.009,-0.36 c 0.048,-0.624 0.243,-1.125 0.585,-1.503 0.348,-0.378 0.81,-0.567 1.386,-0.567 0.624,0 1.11,0.207 1.458,0.621 0.354,0.414 0.531,0.981 0.531,1.701 v 0.135 c 0,0.06 -0.021,0.108 -0.063,0.144 -0.036,0.036 -0.084,0.054 -0.144,0.054 h -3.204 v 0.09 c 0.012,0.282 0.075,0.546 0.189,0.792 0.12,0.24 0.285,0.435 0.495,0.585 0.21,0.144 0.456,0.216 0.738,0.216 0.33,0 0.597,-0.063 0.801,-0.189 0.21,-0.132 0.36,-0.264 0.45,-0.396 0.054,-0.072 0.093,-0.117 0.117,-0.135 0.03,-0.018 0.081,-0.027 0.153,-0.027 h 0.144 c 0.054,0 0.099,0.015 0.135,0.045 0.036,0.03 0.054,0.069 0.054,0.117 0,0.126 -0.081,0.279 -0.243,0.459 -0.156,0.174 -0.375,0.327 -0.657,0.459 -0.282,0.126 -0.6,0.189 -0.954,0.189 z M 107,91.381 v -0.036 c 0,-0.462 -0.132,-0.843 -0.396,-1.143 -0.258,-0.3 -0.606,-0.45 -1.044,-0.45 -0.438,0 -0.786,0.15 -1.044,0.45 -0.252,0.3 -0.378,0.681 -0.378,1.143 v 0.036 z" />
    <rect
       style="opacity:1;fill:#3a3345;fill-opacity:1;stroke:#211e29;stroke-width:0;stroke-miterlimit:4;stroke-dasharray:none;stroke-opacity:1"
       id="rect2045"
       width="112.12375"
       height="158"
       x="3.9408963"
       y="195"
       ry="4.0512819" />
    <path
       inkscape:connector-curvature="0"
       id="path3991"
       fill="#FEC38F"
       d="m 58.1659,229 c -0.048,0 -0.09,-0.018 -0.126,-0.054 -0.036,-0.036 -0.054,-0.078 -0.054,-0.126 0,-0.06 0.024,-0.12 0.072,-0.18 l 1.584,-2.034 -1.503,-1.926 c -0.048,-0.06 -0.072,-0.12 -0.072,-0.18 0,-0.048 0.018,-0.09 0.054,-0.126 0.036,-0.036 0.078,-0.054 0.126,-0.054 h 0.189 c 0.054,0 0.093,0.012 0.117,0.036 0.03,0.018 0.066,0.051 0.108,0.099 l 1.35,1.737 1.35,-1.728 c 0.006,-0.006 0.021,-0.024 0.045,-0.054 0.024,-0.03 0.051,-0.051 0.081,-0.063 0.03,-0.018 0.063,-0.027 0.099,-0.027 h 0.18 c 0.048,0 0.09,0.018 0.126,0.054 0.036,0.036 0.054,0.078 0.054,0.126 0,0.06 -0.024,0.12 -0.072,0.18 l -1.521,1.953 1.584,2.007 c 0.048,0.06 0.072,0.12 0.072,0.18 0,0.048 -0.018,0.09 -0.054,0.126 -0.036,0.036 -0.078,0.054 -0.126,0.054 h -0.189 c -0.084,0 -0.159,-0.045 -0.225,-0.135 l -1.422,-1.818 -1.422,1.818 c -0.042,0.048 -0.078,0.084 -0.108,0.108 -0.024,0.018 -0.063,0.027 -0.117,0.027 z" />
    <path
       inkscape:connector-curvature="0"
       id="path3993"
       fill="#FEC38F"
       d="m 59.126,270.71 c -0.048,0 -0.09,-0.018 -0.126,-0.054 -0.036,-0.036 -0.054,-0.078 -0.054,-0.126 0,-0.03 0.018,-0.09 0.054,-0.18 l 0.693,-1.62 -1.719,-4.05 c -0.036,-0.09 -0.054,-0.15 -0.054,-0.18 0,-0.048 0.018,-0.09 0.054,-0.126 0.036,-0.036 0.078,-0.054 0.126,-0.054 h 0.189 c 0.096,0 0.165,0.045 0.207,0.135 l 1.512,3.564 1.548,-3.564 c 0.048,-0.09 0.117,-0.135 0.207,-0.135 h 0.18 c 0.048,0 0.09,0.018 0.126,0.054 0.036,0.036 0.054,0.078 0.054,0.126 0,0.03 -0.018,0.09 -0.054,0.18 l -2.556,5.895 c -0.042,0.09 -0.111,0.135 -0.207,0.135 z" />
    <path
       inkscape:connector-curvature="0"
       id="path3995"
       fill="#FEC38F"
       d="m 58.3699,309 c -0.06,0 -0.108,-0.018 -0.144,-0.054 -0.036,-0.036 -0.054,-0.084 -0.054,-0.144 v -0.153 c 0,-0.066 0.042,-0.159 0.126,-0.279 l 2.646,-3.528 h -2.484 c -0.06,0 -0.108,-0.018 -0.144,-0.054 -0.036,-0.036 -0.054,-0.084 -0.054,-0.144 v -0.126 c 0,-0.06 0.018,-0.108 0.054,-0.144 0.036,-0.036 0.084,-0.054 0.144,-0.054 h 3.024 c 0.06,0 0.108,0.018 0.144,0.054 0.036,0.036 0.054,0.084 0.054,0.144 v 0.153 c 0,0.066 -0.042,0.159 -0.126,0.279 l -2.628,3.528 h 2.736 c 0.06,0 0.108,0.018 0.144,0.054 0.036,0.036 0.054,0.084 0.054,0.144 v 0.126 c 0,0.06 -0.018,0.108 -0.054,0.144 -0.036,0.036 -0.084,0.054 -0.144,0.054 z" />
    <path
       inkscape:connector-curvature="0"
       id="path3997"
       fill="#FEC38F"
       d="m 60.6868,349 c -0.444,0 -0.759,-0.132 -0.945,-0.396 -0.186,-0.27 -0.279,-0.639 -0.279,-1.107 v -2.655 h -0.702 c -0.06,0 -0.108,-0.018 -0.144,-0.054 -0.036,-0.036 -0.054,-0.084 -0.054,-0.144 v -0.126 c 0,-0.06 0.018,-0.108 0.054,-0.144 0.036,-0.036 0.084,-0.054 0.144,-0.054 h 0.702 v -1.512 c 0,-0.06 0.018,-0.108 0.054,-0.144 0.036,-0.036 0.084,-0.054 0.144,-0.054 h 0.153 c 0.06,0 0.108,0.018 0.144,0.054 0.036,0.036 0.054,0.084 0.054,0.144 v 1.512 h 1.116 c 0.06,0 0.108,0.018 0.144,0.054 0.036,0.036 0.054,0.084 0.054,0.144 v 0.126 c 0,0.06 -0.018,0.108 -0.054,0.144 -0.036,0.036 -0.084,0.054 -0.144,0.054 h -1.116 v 2.619 c 0,0.336 0.054,0.591 0.162,0.765 0.114,0.168 0.3,0.252 0.558,0.252 h 0.486 c 0.06,0 0.108,0.018 0.144,0.054 0.036,0.036 0.054,0.084 0.054,0.144 v 0.126 c 0,0.06 -0.018,0.108 -0.054,0.144 -0.036,0.036 -0.084,0.054 -0.144,0.054 z" />
    <line
       id="line3999"
       stroke-width="0.5"
       stroke="#FEC38F"
       y2="19.75"
       x2="120.002"
       y1="19.75"
       x1="-0.0020752" />
    <path
       inkscape:connector-curvature="0"
       id="path835"
       style="opacity:1;fill:#715f95;stroke:#211e29;stroke-width:0;stop-opacity:1"
       d="m 55,362.0002 v 5 a 5,5 0 0 0 2.49218,4.37109 5,5 0 0 0 5.03125,-0.01 A 5,5 0 0 0 65,366.98242 V 362 l -3,4 -2,-4 -2,4 z" />
  </g>
  <defs
     id="defs4006">
    <clipPath
       id="clip0">
      <rect
         id="rect4003"
         fill="white"
         height="380"
         width="120" />
    </clipPath>
  </defs>
</svg>
